G04 (created by PCBNEW-RS274X (2012-apr-16-27)-stable) date Wed 30 Oct 2013 17:52:59 GMT*
G01*
G70*
G90*
%MOIN*%
G04 Gerber Fmt 3.4, Leading zero omitted, Abs format*
%FSLAX34Y34*%
G04 APERTURE LIST*
%ADD10C,0.006000*%
%ADD11C,0.005000*%
%ADD12C,0.012000*%
%ADD13C,0.008000*%
%ADD14C,0.010000*%
%ADD15C,0.015000*%
G04 APERTURE END LIST*
G54D10*
G54D11*
X66650Y-33450D02*
X73000Y-33450D01*
X73000Y-28350D02*
X66650Y-28350D01*
X73000Y-28350D02*
X73000Y-33450D01*
X66650Y-28350D02*
X66650Y-33450D01*
G54D12*
X51900Y-20100D02*
X59900Y-20100D01*
X59900Y-20100D02*
X59900Y-21100D01*
X59900Y-21100D02*
X51900Y-21100D01*
X51900Y-21100D02*
X51900Y-20100D01*
X52900Y-21100D02*
X52900Y-20100D01*
X33700Y-15100D02*
X41700Y-15100D01*
X41700Y-15100D02*
X41700Y-16100D01*
X41700Y-16100D02*
X33700Y-16100D01*
X33700Y-16100D02*
X33700Y-15100D01*
X34700Y-16100D02*
X34700Y-15100D01*
X42800Y-15100D02*
X50800Y-15100D01*
X50800Y-15100D02*
X50800Y-16100D01*
X50800Y-16100D02*
X42800Y-16100D01*
X42800Y-16100D02*
X42800Y-15100D01*
X43800Y-16100D02*
X43800Y-15100D01*
X51900Y-15100D02*
X59900Y-15100D01*
X59900Y-15100D02*
X59900Y-16100D01*
X59900Y-16100D02*
X51900Y-16100D01*
X51900Y-16100D02*
X51900Y-15100D01*
X52900Y-16100D02*
X52900Y-15100D01*
X33700Y-20100D02*
X41700Y-20100D01*
X41700Y-20100D02*
X41700Y-21100D01*
X41700Y-21100D02*
X33700Y-21100D01*
X33700Y-21100D02*
X33700Y-20100D01*
X34700Y-21100D02*
X34700Y-20100D01*
X42800Y-20100D02*
X50800Y-20100D01*
X50800Y-20100D02*
X50800Y-21100D01*
X50800Y-21100D02*
X42800Y-21100D01*
X42800Y-21100D02*
X42800Y-20100D01*
X43800Y-21100D02*
X43800Y-20100D01*
G54D13*
X32750Y-28750D02*
X32550Y-28750D01*
X29750Y-28750D02*
X29950Y-28750D01*
X29950Y-28750D02*
X29950Y-29150D01*
X29950Y-29150D02*
X32550Y-29150D01*
X32550Y-29150D02*
X32550Y-28350D01*
X32550Y-28350D02*
X29950Y-28350D01*
X29950Y-28350D02*
X29950Y-28750D01*
X32550Y-28950D02*
X32350Y-29150D01*
X43700Y-38500D02*
X43500Y-38500D01*
X40700Y-38500D02*
X40900Y-38500D01*
X40900Y-38500D02*
X40900Y-38900D01*
X40900Y-38900D02*
X43500Y-38900D01*
X43500Y-38900D02*
X43500Y-38100D01*
X43500Y-38100D02*
X40900Y-38100D01*
X40900Y-38100D02*
X40900Y-38500D01*
X43500Y-38700D02*
X43300Y-38900D01*
X31000Y-35750D02*
X31200Y-35750D01*
X34000Y-35750D02*
X33800Y-35750D01*
X33800Y-35750D02*
X33800Y-35350D01*
X33800Y-35350D02*
X31200Y-35350D01*
X31200Y-35350D02*
X31200Y-36150D01*
X31200Y-36150D02*
X33800Y-36150D01*
X33800Y-36150D02*
X33800Y-35750D01*
X31200Y-35550D02*
X31400Y-35350D01*
X32750Y-32000D02*
X32550Y-32000D01*
X29750Y-32000D02*
X29950Y-32000D01*
X29950Y-32000D02*
X29950Y-32400D01*
X29950Y-32400D02*
X32550Y-32400D01*
X32550Y-32400D02*
X32550Y-31600D01*
X32550Y-31600D02*
X29950Y-31600D01*
X29950Y-31600D02*
X29950Y-32000D01*
X32550Y-32200D02*
X32350Y-32400D01*
X30750Y-26750D02*
X30750Y-26550D01*
X30750Y-23750D02*
X30750Y-23950D01*
X30750Y-23950D02*
X30350Y-23950D01*
X30350Y-23950D02*
X30350Y-26550D01*
X30350Y-26550D02*
X31150Y-26550D01*
X31150Y-26550D02*
X31150Y-23950D01*
X31150Y-23950D02*
X30750Y-23950D01*
X30550Y-26550D02*
X30350Y-26350D01*
X33200Y-19700D02*
X33200Y-19500D01*
X33200Y-16700D02*
X33200Y-16900D01*
X33200Y-16900D02*
X32800Y-16900D01*
X32800Y-16900D02*
X32800Y-19500D01*
X32800Y-19500D02*
X33600Y-19500D01*
X33600Y-19500D02*
X33600Y-16900D01*
X33600Y-16900D02*
X33200Y-16900D01*
X33000Y-19500D02*
X32800Y-19300D01*
X42300Y-19600D02*
X42300Y-19400D01*
X42300Y-16600D02*
X42300Y-16800D01*
X42300Y-16800D02*
X41900Y-16800D01*
X41900Y-16800D02*
X41900Y-19400D01*
X41900Y-19400D02*
X42700Y-19400D01*
X42700Y-19400D02*
X42700Y-16800D01*
X42700Y-16800D02*
X42300Y-16800D01*
X42100Y-19400D02*
X41900Y-19200D01*
X51300Y-19500D02*
X51300Y-19300D01*
X51300Y-16500D02*
X51300Y-16700D01*
X51300Y-16700D02*
X50900Y-16700D01*
X50900Y-16700D02*
X50900Y-19300D01*
X50900Y-19300D02*
X51700Y-19300D01*
X51700Y-19300D02*
X51700Y-16700D01*
X51700Y-16700D02*
X51300Y-16700D01*
X51100Y-19300D02*
X50900Y-19100D01*
X36500Y-22900D02*
X36300Y-22900D01*
X33500Y-22900D02*
X33700Y-22900D01*
X33700Y-22900D02*
X33700Y-23300D01*
X33700Y-23300D02*
X36300Y-23300D01*
X36300Y-23300D02*
X36300Y-22500D01*
X36300Y-22500D02*
X33700Y-22500D01*
X33700Y-22500D02*
X33700Y-22900D01*
X36300Y-23100D02*
X36100Y-23300D01*
X45900Y-21700D02*
X45900Y-21900D01*
X45900Y-24700D02*
X45900Y-24500D01*
X45900Y-24500D02*
X46300Y-24500D01*
X46300Y-24500D02*
X46300Y-21900D01*
X46300Y-21900D02*
X45500Y-21900D01*
X45500Y-21900D02*
X45500Y-24500D01*
X45500Y-24500D02*
X45900Y-24500D01*
X46100Y-21900D02*
X46300Y-22100D01*
X56800Y-22300D02*
X56800Y-22500D01*
X56800Y-25300D02*
X56800Y-25100D01*
X56800Y-25100D02*
X57200Y-25100D01*
X57200Y-25100D02*
X57200Y-22500D01*
X57200Y-22500D02*
X56400Y-22500D01*
X56400Y-22500D02*
X56400Y-25100D01*
X56400Y-25100D02*
X56800Y-25100D01*
X57000Y-22500D02*
X57200Y-22700D01*
X64240Y-35660D02*
X64240Y-35860D01*
X64240Y-38660D02*
X64240Y-38460D01*
X64240Y-38460D02*
X64640Y-38460D01*
X64640Y-38460D02*
X64640Y-35860D01*
X64640Y-35860D02*
X63840Y-35860D01*
X63840Y-35860D02*
X63840Y-38460D01*
X63840Y-38460D02*
X64240Y-38460D01*
X64440Y-35860D02*
X64640Y-36060D01*
X65430Y-35630D02*
X65430Y-35830D01*
X65430Y-38630D02*
X65430Y-38430D01*
X65430Y-38430D02*
X65830Y-38430D01*
X65830Y-38430D02*
X65830Y-35830D01*
X65830Y-35830D02*
X65030Y-35830D01*
X65030Y-35830D02*
X65030Y-38430D01*
X65030Y-38430D02*
X65430Y-38430D01*
X65630Y-35830D02*
X65830Y-36030D01*
G54D14*
X39700Y-14600D02*
X35700Y-14600D01*
X39700Y-13600D02*
X35700Y-13600D01*
X35700Y-13600D02*
X35700Y-14600D01*
X39700Y-14600D02*
X39700Y-13600D01*
X48800Y-14500D02*
X44800Y-14500D01*
X48800Y-13500D02*
X44800Y-13500D01*
X44800Y-13500D02*
X44800Y-14500D01*
X48800Y-14500D02*
X48800Y-13500D01*
X57900Y-14600D02*
X53900Y-14600D01*
X57900Y-13600D02*
X53900Y-13600D01*
X53900Y-13600D02*
X53900Y-14600D01*
X57900Y-14600D02*
X57900Y-13600D01*
G54D13*
X40700Y-35600D02*
X43700Y-35600D01*
X43700Y-37600D02*
X40700Y-37600D01*
X40700Y-37600D02*
X40700Y-35600D01*
X43700Y-35600D02*
X43700Y-37600D01*
X57500Y-18400D02*
X54500Y-18400D01*
X54500Y-16400D02*
X57500Y-16400D01*
X57500Y-16400D02*
X57500Y-18400D01*
X54500Y-18400D02*
X54500Y-16400D01*
X48700Y-18400D02*
X45700Y-18400D01*
X45700Y-16400D02*
X48700Y-16400D01*
X48700Y-16400D02*
X48700Y-18400D01*
X45700Y-18400D02*
X45700Y-16400D01*
X39700Y-18500D02*
X36700Y-18500D01*
X36700Y-16500D02*
X39700Y-16500D01*
X39700Y-16500D02*
X39700Y-18500D01*
X36700Y-18500D02*
X36700Y-16500D01*
G54D11*
X36350Y-18100D02*
X36326Y-18342D01*
X36255Y-18576D01*
X36141Y-18791D01*
X35986Y-18980D01*
X35798Y-19136D01*
X35584Y-19252D01*
X35351Y-19324D01*
X35108Y-19349D01*
X34866Y-19327D01*
X34632Y-19258D01*
X34416Y-19145D01*
X34226Y-18993D01*
X34069Y-18806D01*
X33952Y-18592D01*
X33878Y-18359D01*
X33851Y-18117D01*
X33871Y-17875D01*
X33938Y-17640D01*
X34050Y-17423D01*
X34201Y-17232D01*
X34387Y-17074D01*
X34600Y-16955D01*
X34832Y-16880D01*
X35074Y-16851D01*
X35317Y-16869D01*
X35552Y-16935D01*
X35769Y-17045D01*
X35962Y-17195D01*
X36121Y-17380D01*
X36241Y-17592D01*
X36318Y-17824D01*
X36349Y-18066D01*
X36350Y-18100D01*
X54350Y-18000D02*
X54326Y-18242D01*
X54255Y-18476D01*
X54141Y-18691D01*
X53986Y-18880D01*
X53798Y-19036D01*
X53584Y-19152D01*
X53351Y-19224D01*
X53108Y-19249D01*
X52866Y-19227D01*
X52632Y-19158D01*
X52416Y-19045D01*
X52226Y-18893D01*
X52069Y-18706D01*
X51952Y-18492D01*
X51878Y-18259D01*
X51851Y-18017D01*
X51871Y-17775D01*
X51938Y-17540D01*
X52050Y-17323D01*
X52201Y-17132D01*
X52387Y-16974D01*
X52600Y-16855D01*
X52832Y-16780D01*
X53074Y-16751D01*
X53317Y-16769D01*
X53552Y-16835D01*
X53769Y-16945D01*
X53962Y-17095D01*
X54121Y-17280D01*
X54241Y-17492D01*
X54318Y-17724D01*
X54349Y-17966D01*
X54350Y-18000D01*
X45450Y-18100D02*
X45426Y-18342D01*
X45355Y-18576D01*
X45241Y-18791D01*
X45086Y-18980D01*
X44898Y-19136D01*
X44684Y-19252D01*
X44451Y-19324D01*
X44208Y-19349D01*
X43966Y-19327D01*
X43732Y-19258D01*
X43516Y-19145D01*
X43326Y-18993D01*
X43169Y-18806D01*
X43052Y-18592D01*
X42978Y-18359D01*
X42951Y-18117D01*
X42971Y-17875D01*
X43038Y-17640D01*
X43150Y-17423D01*
X43301Y-17232D01*
X43487Y-17074D01*
X43700Y-16955D01*
X43932Y-16880D01*
X44174Y-16851D01*
X44417Y-16869D01*
X44652Y-16935D01*
X44869Y-17045D01*
X45062Y-17195D01*
X45221Y-17380D01*
X45341Y-17592D01*
X45418Y-17824D01*
X45449Y-18066D01*
X45450Y-18100D01*
X65201Y-21000D02*
X65181Y-21194D01*
X65125Y-21381D01*
X65033Y-21553D01*
X64910Y-21705D01*
X64759Y-21829D01*
X64587Y-21922D01*
X64401Y-21980D01*
X64206Y-22000D01*
X64013Y-21983D01*
X63826Y-21928D01*
X63652Y-21837D01*
X63500Y-21715D01*
X63375Y-21565D01*
X63280Y-21394D01*
X63221Y-21208D01*
X63200Y-21013D01*
X63216Y-20820D01*
X63270Y-20632D01*
X63359Y-20458D01*
X63480Y-20305D01*
X63629Y-20179D01*
X63800Y-20083D01*
X63986Y-20023D01*
X64180Y-20000D01*
X64373Y-20015D01*
X64561Y-20067D01*
X64736Y-20155D01*
X64890Y-20276D01*
X65017Y-20423D01*
X65114Y-20593D01*
X65176Y-20779D01*
X65200Y-20973D01*
X65201Y-21000D01*
X45301Y-23700D02*
X45281Y-23894D01*
X45225Y-24081D01*
X45133Y-24253D01*
X45010Y-24405D01*
X44859Y-24529D01*
X44687Y-24622D01*
X44501Y-24680D01*
X44306Y-24700D01*
X44113Y-24683D01*
X43926Y-24628D01*
X43752Y-24537D01*
X43600Y-24415D01*
X43475Y-24265D01*
X43380Y-24094D01*
X43321Y-23908D01*
X43300Y-23713D01*
X43316Y-23520D01*
X43370Y-23332D01*
X43459Y-23158D01*
X43580Y-23005D01*
X43729Y-22879D01*
X43900Y-22783D01*
X44086Y-22723D01*
X44280Y-22700D01*
X44473Y-22715D01*
X44661Y-22767D01*
X44836Y-22855D01*
X44990Y-22976D01*
X45117Y-23123D01*
X45214Y-23293D01*
X45276Y-23479D01*
X45300Y-23673D01*
X45301Y-23700D01*
G54D12*
X65280Y-23300D02*
X63300Y-23300D01*
X63300Y-23300D02*
X63300Y-22300D01*
X63300Y-22300D02*
X65300Y-22300D01*
X65300Y-22300D02*
X65300Y-23300D01*
X65300Y-23050D02*
X65050Y-23300D01*
X46680Y-38700D02*
X44700Y-38700D01*
X44700Y-38700D02*
X44700Y-37700D01*
X44700Y-37700D02*
X46700Y-37700D01*
X46700Y-37700D02*
X46700Y-38700D01*
X46700Y-38450D02*
X46450Y-38700D01*
X60920Y-22300D02*
X62900Y-22300D01*
X62900Y-22300D02*
X62900Y-23300D01*
X62900Y-23300D02*
X60900Y-23300D01*
X60900Y-23300D02*
X60900Y-22300D01*
X60900Y-22550D02*
X61150Y-22300D01*
X47720Y-37700D02*
X49700Y-37700D01*
X49700Y-37700D02*
X49700Y-38700D01*
X49700Y-38700D02*
X47700Y-38700D01*
X47700Y-38700D02*
X47700Y-37700D01*
X47700Y-37950D02*
X47950Y-37700D01*
X43320Y-25300D02*
X45300Y-25300D01*
X45300Y-25300D02*
X45300Y-26300D01*
X45300Y-26300D02*
X43300Y-26300D01*
X43300Y-26300D02*
X43300Y-25300D01*
X43300Y-25550D02*
X43550Y-25300D01*
X61980Y-28090D02*
X63960Y-28090D01*
X63960Y-28090D02*
X63960Y-29090D01*
X63960Y-29090D02*
X61960Y-29090D01*
X61960Y-29090D02*
X61960Y-28090D01*
X61960Y-28340D02*
X62210Y-28090D01*
X61980Y-26080D02*
X63960Y-26080D01*
X63960Y-26080D02*
X63960Y-27080D01*
X63960Y-27080D02*
X61960Y-27080D01*
X61960Y-27080D02*
X61960Y-26080D01*
X61960Y-26330D02*
X62210Y-26080D01*
X58860Y-37820D02*
X60840Y-37820D01*
X60840Y-37820D02*
X60840Y-38820D01*
X60840Y-38820D02*
X58840Y-38820D01*
X58840Y-38820D02*
X58840Y-37820D01*
X58840Y-38070D02*
X59090Y-37820D01*
X62850Y-30770D02*
X64830Y-30770D01*
X64830Y-30770D02*
X64830Y-31770D01*
X64830Y-31770D02*
X62830Y-31770D01*
X62830Y-31770D02*
X62830Y-30770D01*
X62830Y-31020D02*
X63080Y-30770D01*
X58400Y-36220D02*
X58400Y-38200D01*
X58400Y-38200D02*
X57400Y-38200D01*
X57400Y-38200D02*
X57400Y-36200D01*
X57400Y-36200D02*
X58400Y-36200D01*
X58150Y-36200D02*
X58400Y-36450D01*
X60920Y-20200D02*
X62900Y-20200D01*
X62900Y-20200D02*
X62900Y-21200D01*
X62900Y-21200D02*
X60900Y-21200D01*
X60900Y-21200D02*
X60900Y-20200D01*
X60900Y-20450D02*
X61150Y-20200D01*
X51800Y-10100D02*
X51800Y-13100D01*
X59800Y-13100D02*
X59800Y-10100D01*
X59800Y-12600D02*
X51800Y-12600D01*
X51800Y-10100D02*
X59800Y-10100D01*
X51800Y-13100D02*
X59800Y-13100D01*
X33500Y-10100D02*
X33500Y-13100D01*
X41500Y-13100D02*
X41500Y-10100D01*
X41500Y-12600D02*
X33500Y-12600D01*
X33500Y-10100D02*
X41500Y-10100D01*
X33500Y-13100D02*
X41500Y-13100D01*
X42900Y-10100D02*
X42900Y-13100D01*
X50900Y-13100D02*
X50900Y-10100D01*
X50900Y-12600D02*
X42900Y-12600D01*
X42900Y-10100D02*
X50900Y-10100D01*
X42900Y-13100D02*
X50900Y-13100D01*
X39500Y-39000D02*
X35500Y-39000D01*
X39500Y-39500D02*
X39500Y-36500D01*
X39500Y-36500D02*
X35500Y-36500D01*
X35500Y-36500D02*
X35500Y-39500D01*
X35500Y-39500D02*
X39500Y-39500D01*
X35500Y-39000D02*
X31500Y-39000D01*
X35500Y-39500D02*
X35500Y-36500D01*
X35500Y-36500D02*
X31500Y-36500D01*
X31500Y-36500D02*
X31500Y-39500D01*
X31500Y-39500D02*
X35500Y-39500D01*
X31500Y-39000D02*
X27500Y-39000D01*
X31500Y-39500D02*
X31500Y-36500D01*
X31500Y-36500D02*
X27500Y-36500D01*
X27500Y-36500D02*
X27500Y-39500D01*
X27500Y-39500D02*
X31500Y-39500D01*
X33400Y-12600D02*
X29400Y-12600D01*
X33400Y-13100D02*
X33400Y-10100D01*
X33400Y-10100D02*
X29400Y-10100D01*
X29400Y-10100D02*
X29400Y-13100D01*
X29400Y-13100D02*
X33400Y-13100D01*
X27500Y-39000D02*
X23500Y-39000D01*
X27500Y-39500D02*
X27500Y-36500D01*
X27500Y-36500D02*
X23500Y-36500D01*
X23500Y-36500D02*
X23500Y-39500D01*
X23500Y-39500D02*
X27500Y-39500D01*
G54D15*
X34800Y-30700D02*
X35300Y-30700D01*
X35300Y-30700D02*
X35300Y-31700D01*
X35300Y-31700D02*
X34800Y-31700D01*
X34800Y-28700D02*
X55800Y-28700D01*
X55800Y-28700D02*
X55800Y-33700D01*
X55800Y-33700D02*
X34800Y-33700D01*
X34800Y-33700D02*
X34800Y-28700D01*
G54D12*
X50100Y-37700D02*
X50100Y-37700D01*
X50100Y-37700D02*
X57100Y-37700D01*
X57100Y-37700D02*
X57100Y-38700D01*
X57100Y-38700D02*
X50100Y-38700D01*
X50100Y-38700D02*
X50100Y-37700D01*
X51100Y-38700D02*
X51100Y-38700D01*
X51100Y-38700D02*
X51100Y-37700D01*
G54D13*
X53000Y-26000D02*
X53200Y-26000D01*
X56000Y-26000D02*
X55800Y-26000D01*
X55800Y-26000D02*
X55800Y-25600D01*
X55800Y-25600D02*
X53200Y-25600D01*
X53200Y-25600D02*
X53200Y-26400D01*
X53200Y-26400D02*
X55800Y-26400D01*
X55800Y-26400D02*
X55800Y-26000D01*
X53200Y-25800D02*
X53400Y-25600D01*
X58500Y-30100D02*
X58500Y-29900D01*
X58500Y-27100D02*
X58500Y-27300D01*
X58500Y-27300D02*
X58100Y-27300D01*
X58100Y-27300D02*
X58100Y-29900D01*
X58100Y-29900D02*
X58900Y-29900D01*
X58900Y-29900D02*
X58900Y-27300D01*
X58900Y-27300D02*
X58500Y-27300D01*
X58300Y-29900D02*
X58100Y-29700D01*
X59600Y-31100D02*
X59600Y-30900D01*
X59600Y-28100D02*
X59600Y-28300D01*
X59600Y-28300D02*
X59200Y-28300D01*
X59200Y-28300D02*
X59200Y-30900D01*
X59200Y-30900D02*
X60000Y-30900D01*
X60000Y-30900D02*
X60000Y-28300D01*
X60000Y-28300D02*
X59600Y-28300D01*
X59400Y-30900D02*
X59200Y-30700D01*
G54D14*
X56500Y-32600D02*
X56500Y-28600D01*
X57500Y-32600D02*
X57500Y-28600D01*
X57500Y-28600D02*
X56500Y-28600D01*
X56500Y-32600D02*
X57500Y-32600D01*
G54D12*
X64800Y-12700D02*
X60800Y-12700D01*
X64800Y-13200D02*
X64800Y-10200D01*
X64800Y-10200D02*
X60800Y-10200D01*
X60800Y-10200D02*
X60800Y-13200D01*
X60800Y-13200D02*
X64800Y-13200D01*
G54D10*
X44450Y-35700D02*
X44950Y-35200D01*
X49450Y-35200D02*
X49950Y-35700D01*
X49950Y-36700D02*
X49450Y-37200D01*
X44450Y-36700D02*
X44950Y-37200D01*
X44950Y-35200D02*
X49450Y-35200D01*
X44450Y-35700D02*
X44450Y-36700D01*
X44950Y-37200D02*
X49450Y-37200D01*
X49950Y-36700D02*
X49950Y-35700D01*
G54D12*
X31750Y-15250D02*
X30250Y-13750D01*
X30250Y-13750D02*
X29750Y-13750D01*
X29750Y-13750D02*
X29250Y-14250D01*
X29250Y-14250D02*
X29250Y-15250D01*
X29250Y-15250D02*
X30250Y-16250D01*
X30250Y-16250D02*
X31250Y-16250D01*
X31250Y-16250D02*
X31750Y-15750D01*
X31750Y-15750D02*
X31750Y-15250D01*
X32500Y-22250D02*
X31000Y-20750D01*
X31000Y-20750D02*
X30500Y-20750D01*
X30500Y-20750D02*
X30000Y-21250D01*
X30000Y-21250D02*
X30000Y-22250D01*
X30000Y-22250D02*
X31000Y-23250D01*
X31000Y-23250D02*
X32000Y-23250D01*
X32000Y-23250D02*
X32500Y-22750D01*
X32500Y-22750D02*
X32500Y-22250D01*
G54D13*
X31250Y-17000D02*
X31250Y-17200D01*
X31250Y-20000D02*
X31250Y-19800D01*
X31250Y-19800D02*
X31650Y-19800D01*
X31650Y-19800D02*
X31650Y-17200D01*
X31650Y-17200D02*
X30850Y-17200D01*
X30850Y-17200D02*
X30850Y-19800D01*
X30850Y-19800D02*
X31250Y-19800D01*
X31450Y-17200D02*
X31650Y-17400D01*
X32000Y-23750D02*
X32000Y-23950D01*
X32000Y-26750D02*
X32000Y-26550D01*
X32000Y-26550D02*
X32400Y-26550D01*
X32400Y-26550D02*
X32400Y-23950D01*
X32400Y-23950D02*
X31600Y-23950D01*
X31600Y-23950D02*
X31600Y-26550D01*
X31600Y-26550D02*
X32000Y-26550D01*
X32200Y-23950D02*
X32400Y-24150D01*
G54D12*
X30000Y-17000D02*
X30000Y-20000D01*
X30000Y-20000D02*
X29000Y-20000D01*
X29000Y-20000D02*
X29000Y-17000D01*
X29000Y-17000D02*
X30000Y-17000D01*
X30000Y-19750D02*
X29000Y-19750D01*
X29000Y-19500D02*
X30000Y-19500D01*
X29500Y-17000D02*
X29500Y-16500D01*
X29500Y-20000D02*
X29500Y-20500D01*
X30000Y-23750D02*
X30000Y-26750D01*
X30000Y-26750D02*
X29000Y-26750D01*
X29000Y-26750D02*
X29000Y-23750D01*
X29000Y-23750D02*
X30000Y-23750D01*
X30000Y-26500D02*
X29000Y-26500D01*
X29000Y-26250D02*
X30000Y-26250D01*
X29500Y-23750D02*
X29500Y-23250D01*
X29500Y-26750D02*
X29500Y-27250D01*
X66000Y-22500D02*
X66000Y-18500D01*
X65500Y-22500D02*
X68500Y-22500D01*
X68500Y-22500D02*
X68500Y-18500D01*
X68500Y-18500D02*
X65500Y-18500D01*
X65500Y-18500D02*
X65500Y-22500D01*
X66000Y-26500D02*
X66000Y-22500D01*
X65500Y-26500D02*
X68500Y-26500D01*
X68500Y-26500D02*
X68500Y-22500D01*
X68500Y-22500D02*
X65500Y-22500D01*
X65500Y-22500D02*
X65500Y-26500D01*
X20600Y-17500D02*
X20600Y-13500D01*
X20100Y-17500D02*
X23100Y-17500D01*
X23100Y-17500D02*
X23100Y-13500D01*
X23100Y-13500D02*
X20100Y-13500D01*
X20100Y-13500D02*
X20100Y-17500D01*
X20600Y-29100D02*
X20600Y-25100D01*
X20100Y-29100D02*
X23100Y-29100D01*
X23100Y-29100D02*
X23100Y-25100D01*
X23100Y-25100D02*
X20100Y-25100D01*
X20100Y-25100D02*
X20100Y-29100D01*
X20600Y-21600D02*
X20600Y-17600D01*
X20100Y-21600D02*
X23100Y-21600D01*
X23100Y-21600D02*
X23100Y-17600D01*
X23100Y-17600D02*
X20100Y-17600D01*
X20100Y-17600D02*
X20100Y-21600D01*
X20600Y-33200D02*
X20600Y-29200D01*
X20100Y-33200D02*
X23100Y-33200D01*
X23100Y-33200D02*
X23100Y-29200D01*
X23100Y-29200D02*
X20100Y-29200D01*
X20100Y-29200D02*
X20100Y-33200D01*
G54D15*
X33250Y-31000D02*
X33250Y-31250D01*
X33250Y-31250D02*
X29250Y-31250D01*
X29250Y-31250D02*
X29250Y-31000D01*
X33250Y-29500D02*
X33250Y-31000D01*
X33250Y-31000D02*
X29250Y-31000D01*
X29250Y-31000D02*
X29250Y-29500D01*
X29250Y-29500D02*
X33250Y-29500D01*
X33250Y-34250D02*
X33250Y-34500D01*
X33250Y-34500D02*
X29250Y-34500D01*
X29250Y-34500D02*
X29250Y-34250D01*
X33250Y-32750D02*
X33250Y-34250D01*
X33250Y-34250D02*
X29250Y-34250D01*
X29250Y-34250D02*
X29250Y-32750D01*
X29250Y-32750D02*
X33250Y-32750D01*
X60500Y-17750D02*
X60500Y-17500D01*
X60500Y-17500D02*
X64500Y-17500D01*
X64500Y-17500D02*
X64500Y-17750D01*
X60500Y-19250D02*
X60500Y-17750D01*
X60500Y-17750D02*
X64500Y-17750D01*
X64500Y-17750D02*
X64500Y-19250D01*
X64500Y-19250D02*
X60500Y-19250D01*
X69400Y-38500D02*
X69382Y-38674D01*
X69332Y-38842D01*
X69249Y-38998D01*
X69138Y-39134D01*
X69003Y-39246D01*
X68848Y-39329D01*
X68680Y-39381D01*
X68506Y-39399D01*
X68332Y-39384D01*
X68163Y-39334D01*
X68008Y-39253D01*
X67871Y-39143D01*
X67758Y-39008D01*
X67673Y-38854D01*
X67620Y-38687D01*
X67601Y-38512D01*
X67615Y-38338D01*
X67664Y-38169D01*
X67744Y-38013D01*
X67853Y-37875D01*
X67987Y-37761D01*
X68140Y-37676D01*
X68307Y-37621D01*
X68482Y-37601D01*
X68656Y-37614D01*
X68825Y-37661D01*
X68982Y-37741D01*
X69120Y-37849D01*
X69235Y-37982D01*
X69322Y-38134D01*
X69377Y-38301D01*
X69399Y-38475D01*
X69400Y-38500D01*
X69400Y-11500D02*
X69382Y-11674D01*
X69332Y-11842D01*
X69249Y-11998D01*
X69138Y-12134D01*
X69003Y-12246D01*
X68848Y-12329D01*
X68680Y-12381D01*
X68506Y-12399D01*
X68332Y-12384D01*
X68163Y-12334D01*
X68008Y-12253D01*
X67871Y-12143D01*
X67758Y-12008D01*
X67673Y-11854D01*
X67620Y-11687D01*
X67601Y-11512D01*
X67615Y-11338D01*
X67664Y-11169D01*
X67744Y-11013D01*
X67853Y-10875D01*
X67987Y-10761D01*
X68140Y-10676D01*
X68307Y-10621D01*
X68482Y-10601D01*
X68656Y-10614D01*
X68825Y-10661D01*
X68982Y-10741D01*
X69120Y-10849D01*
X69235Y-10982D01*
X69322Y-11134D01*
X69377Y-11301D01*
X69399Y-11475D01*
X69400Y-11500D01*
X22400Y-11500D02*
X22382Y-11674D01*
X22332Y-11842D01*
X22249Y-11998D01*
X22138Y-12134D01*
X22003Y-12246D01*
X21848Y-12329D01*
X21680Y-12381D01*
X21506Y-12399D01*
X21332Y-12384D01*
X21163Y-12334D01*
X21008Y-12253D01*
X20871Y-12143D01*
X20758Y-12008D01*
X20673Y-11854D01*
X20620Y-11687D01*
X20601Y-11512D01*
X20615Y-11338D01*
X20664Y-11169D01*
X20744Y-11013D01*
X20853Y-10875D01*
X20987Y-10761D01*
X21140Y-10676D01*
X21307Y-10621D01*
X21482Y-10601D01*
X21656Y-10614D01*
X21825Y-10661D01*
X21982Y-10741D01*
X22120Y-10849D01*
X22235Y-10982D01*
X22322Y-11134D01*
X22377Y-11301D01*
X22399Y-11475D01*
X22400Y-11500D01*
X22400Y-38500D02*
X22382Y-38674D01*
X22332Y-38842D01*
X22249Y-38998D01*
X22138Y-39134D01*
X22003Y-39246D01*
X21848Y-39329D01*
X21680Y-39381D01*
X21506Y-39399D01*
X21332Y-39384D01*
X21163Y-39334D01*
X21008Y-39253D01*
X20871Y-39143D01*
X20758Y-39008D01*
X20673Y-38854D01*
X20620Y-38687D01*
X20601Y-38512D01*
X20615Y-38338D01*
X20664Y-38169D01*
X20744Y-38013D01*
X20853Y-37875D01*
X20987Y-37761D01*
X21140Y-37676D01*
X21307Y-37621D01*
X21482Y-37601D01*
X21656Y-37614D01*
X21825Y-37661D01*
X21982Y-37741D01*
X22120Y-37849D01*
X22235Y-37982D01*
X22322Y-38134D01*
X22377Y-38301D01*
X22399Y-38475D01*
X22400Y-38500D01*
X23800Y-23450D02*
X28800Y-23450D01*
X28800Y-23450D02*
X28800Y-11450D01*
X28800Y-11450D02*
X23800Y-11450D01*
X23800Y-11450D02*
X23800Y-23450D01*
X23750Y-35800D02*
X28750Y-35800D01*
X28750Y-35800D02*
X28750Y-23800D01*
X28750Y-23800D02*
X23750Y-23800D01*
X23750Y-23800D02*
X23750Y-35800D01*
G54D14*
X65170Y-34870D02*
X65170Y-33870D01*
G54D10*
X64090Y-33986D02*
X64058Y-34028D01*
X64030Y-34072D01*
X64006Y-34119D01*
X63986Y-34167D01*
X63970Y-34217D01*
X63959Y-34268D01*
X63953Y-34320D01*
X63950Y-34370D01*
X63951Y-34370D02*
X63954Y-34422D01*
X63961Y-34474D01*
X63972Y-34525D01*
X63988Y-34574D01*
X64008Y-34623D01*
X64032Y-34669D01*
X64060Y-34713D01*
X64092Y-34755D01*
X64103Y-34767D01*
X65149Y-34370D02*
X65146Y-34318D01*
X65139Y-34266D01*
X65128Y-34215D01*
X65112Y-34166D01*
X65092Y-34117D01*
X65068Y-34071D01*
X65040Y-34027D01*
X65008Y-33985D01*
X65004Y-33981D01*
X65010Y-34754D02*
X65042Y-34712D01*
X65070Y-34668D01*
X65094Y-34621D01*
X65114Y-34573D01*
X65130Y-34523D01*
X65141Y-34472D01*
X65147Y-34420D01*
X65150Y-34370D01*
X65037Y-34021D02*
X65005Y-33980D01*
X64969Y-33942D01*
X64930Y-33907D01*
X64888Y-33875D01*
X64844Y-33848D01*
X64797Y-33824D01*
X64749Y-33805D01*
X64699Y-33789D01*
X64647Y-33779D01*
X64596Y-33772D01*
X64550Y-33770D01*
X64550Y-33770D02*
X64498Y-33773D01*
X64446Y-33780D01*
X64395Y-33791D01*
X64345Y-33807D01*
X64297Y-33827D01*
X64251Y-33851D01*
X64206Y-33879D01*
X64165Y-33911D01*
X64126Y-33946D01*
X64091Y-33985D01*
X64071Y-34010D01*
X64550Y-34969D02*
X64602Y-34966D01*
X64654Y-34959D01*
X64705Y-34948D01*
X64754Y-34932D01*
X64803Y-34912D01*
X64849Y-34888D01*
X64893Y-34860D01*
X64935Y-34828D01*
X64973Y-34793D01*
X65008Y-34755D01*
X65022Y-34737D01*
X64077Y-34738D02*
X64111Y-34778D01*
X64148Y-34815D01*
X64189Y-34848D01*
X64232Y-34878D01*
X64277Y-34904D01*
X64325Y-34925D01*
X64374Y-34943D01*
X64425Y-34956D01*
X64476Y-34965D01*
X64529Y-34969D01*
X64550Y-34970D01*
X64550Y-34120D02*
X64529Y-34121D01*
X64507Y-34124D01*
X64486Y-34129D01*
X64465Y-34136D01*
X64445Y-34144D01*
X64426Y-34154D01*
X64407Y-34166D01*
X64390Y-34179D01*
X64374Y-34194D01*
X64359Y-34210D01*
X64346Y-34227D01*
X64334Y-34246D01*
X64324Y-34265D01*
X64316Y-34285D01*
X64309Y-34306D01*
X64304Y-34327D01*
X64301Y-34349D01*
X64300Y-34370D01*
X64550Y-33970D02*
X64516Y-33972D01*
X64481Y-33977D01*
X64447Y-33984D01*
X64414Y-33995D01*
X64381Y-34008D01*
X64351Y-34024D01*
X64321Y-34043D01*
X64293Y-34064D01*
X64268Y-34088D01*
X64244Y-34113D01*
X64223Y-34141D01*
X64204Y-34171D01*
X64188Y-34201D01*
X64175Y-34234D01*
X64164Y-34267D01*
X64157Y-34301D01*
X64152Y-34336D01*
X64150Y-34370D01*
X64550Y-34620D02*
X64571Y-34619D01*
X64593Y-34616D01*
X64614Y-34611D01*
X64635Y-34604D01*
X64655Y-34596D01*
X64675Y-34586D01*
X64693Y-34574D01*
X64710Y-34561D01*
X64726Y-34546D01*
X64741Y-34530D01*
X64754Y-34513D01*
X64766Y-34494D01*
X64776Y-34475D01*
X64784Y-34455D01*
X64791Y-34434D01*
X64796Y-34413D01*
X64799Y-34391D01*
X64800Y-34370D01*
X64550Y-34770D02*
X64584Y-34768D01*
X64619Y-34763D01*
X64653Y-34756D01*
X64686Y-34745D01*
X64719Y-34732D01*
X64750Y-34716D01*
X64779Y-34697D01*
X64807Y-34676D01*
X64832Y-34652D01*
X64856Y-34627D01*
X64877Y-34599D01*
X64896Y-34569D01*
X64912Y-34539D01*
X64925Y-34506D01*
X64936Y-34473D01*
X64943Y-34439D01*
X64948Y-34404D01*
X64950Y-34370D01*
G54D14*
X65163Y-33857D02*
X65116Y-33806D01*
X65065Y-33759D01*
X65010Y-33716D01*
X64951Y-33678D01*
X64889Y-33646D01*
X64824Y-33619D01*
X64758Y-33598D01*
X64690Y-33583D01*
X64621Y-33574D01*
X64551Y-33571D01*
X64550Y-33570D01*
X64550Y-33571D02*
X64481Y-33575D01*
X64412Y-33584D01*
X64344Y-33599D01*
X64277Y-33620D01*
X64213Y-33646D01*
X64151Y-33679D01*
X64092Y-33716D01*
X64037Y-33758D01*
X63986Y-33806D01*
X63938Y-33857D01*
X63896Y-33912D01*
X63859Y-33971D01*
X63846Y-33994D01*
X64551Y-35167D02*
X64620Y-35164D01*
X64689Y-35155D01*
X64757Y-35140D01*
X64824Y-35119D01*
X64888Y-35092D01*
X64950Y-35060D01*
X65008Y-35022D01*
X65064Y-34980D01*
X65115Y-34933D01*
X65159Y-34885D01*
X63856Y-34767D02*
X63894Y-34826D01*
X63936Y-34882D01*
X63983Y-34933D01*
X64034Y-34981D01*
X64089Y-35023D01*
X64148Y-35061D01*
X64210Y-35093D01*
X64274Y-35120D01*
X64341Y-35142D01*
X64409Y-35157D01*
X64478Y-35166D01*
X64548Y-35169D01*
X64550Y-35170D01*
X63846Y-33991D02*
X63816Y-34054D01*
X63791Y-34119D01*
X63772Y-34186D01*
X63759Y-34255D01*
X63752Y-34324D01*
X63750Y-34370D01*
X63751Y-34370D02*
X63755Y-34439D01*
X63764Y-34508D01*
X63779Y-34576D01*
X63800Y-34643D01*
X63826Y-34707D01*
X63859Y-34769D01*
X63870Y-34788D01*
X67160Y-34880D02*
X67160Y-33880D01*
G54D10*
X66080Y-33996D02*
X66048Y-34038D01*
X66020Y-34082D01*
X65996Y-34129D01*
X65976Y-34177D01*
X65960Y-34227D01*
X65949Y-34278D01*
X65943Y-34330D01*
X65940Y-34380D01*
X65941Y-34380D02*
X65944Y-34432D01*
X65951Y-34484D01*
X65962Y-34535D01*
X65978Y-34584D01*
X65998Y-34633D01*
X66022Y-34679D01*
X66050Y-34723D01*
X66082Y-34765D01*
X66093Y-34777D01*
X67139Y-34380D02*
X67136Y-34328D01*
X67129Y-34276D01*
X67118Y-34225D01*
X67102Y-34176D01*
X67082Y-34127D01*
X67058Y-34081D01*
X67030Y-34037D01*
X66998Y-33995D01*
X66994Y-33991D01*
X67000Y-34764D02*
X67032Y-34722D01*
X67060Y-34678D01*
X67084Y-34631D01*
X67104Y-34583D01*
X67120Y-34533D01*
X67131Y-34482D01*
X67137Y-34430D01*
X67140Y-34380D01*
X67027Y-34031D02*
X66995Y-33990D01*
X66959Y-33952D01*
X66920Y-33917D01*
X66878Y-33885D01*
X66834Y-33858D01*
X66787Y-33834D01*
X66739Y-33815D01*
X66689Y-33799D01*
X66637Y-33789D01*
X66586Y-33782D01*
X66540Y-33780D01*
X66540Y-33780D02*
X66488Y-33783D01*
X66436Y-33790D01*
X66385Y-33801D01*
X66335Y-33817D01*
X66287Y-33837D01*
X66241Y-33861D01*
X66196Y-33889D01*
X66155Y-33921D01*
X66116Y-33956D01*
X66081Y-33995D01*
X66061Y-34020D01*
X66540Y-34979D02*
X66592Y-34976D01*
X66644Y-34969D01*
X66695Y-34958D01*
X66744Y-34942D01*
X66793Y-34922D01*
X66839Y-34898D01*
X66883Y-34870D01*
X66925Y-34838D01*
X66963Y-34803D01*
X66998Y-34765D01*
X67012Y-34747D01*
X66067Y-34748D02*
X66101Y-34788D01*
X66138Y-34825D01*
X66179Y-34858D01*
X66222Y-34888D01*
X66267Y-34914D01*
X66315Y-34935D01*
X66364Y-34953D01*
X66415Y-34966D01*
X66466Y-34975D01*
X66519Y-34979D01*
X66540Y-34980D01*
X66540Y-34130D02*
X66519Y-34131D01*
X66497Y-34134D01*
X66476Y-34139D01*
X66455Y-34146D01*
X66435Y-34154D01*
X66416Y-34164D01*
X66397Y-34176D01*
X66380Y-34189D01*
X66364Y-34204D01*
X66349Y-34220D01*
X66336Y-34237D01*
X66324Y-34256D01*
X66314Y-34275D01*
X66306Y-34295D01*
X66299Y-34316D01*
X66294Y-34337D01*
X66291Y-34359D01*
X66290Y-34380D01*
X66540Y-33980D02*
X66506Y-33982D01*
X66471Y-33987D01*
X66437Y-33994D01*
X66404Y-34005D01*
X66371Y-34018D01*
X66341Y-34034D01*
X66311Y-34053D01*
X66283Y-34074D01*
X66258Y-34098D01*
X66234Y-34123D01*
X66213Y-34151D01*
X66194Y-34181D01*
X66178Y-34211D01*
X66165Y-34244D01*
X66154Y-34277D01*
X66147Y-34311D01*
X66142Y-34346D01*
X66140Y-34380D01*
X66540Y-34630D02*
X66561Y-34629D01*
X66583Y-34626D01*
X66604Y-34621D01*
X66625Y-34614D01*
X66645Y-34606D01*
X66665Y-34596D01*
X66683Y-34584D01*
X66700Y-34571D01*
X66716Y-34556D01*
X66731Y-34540D01*
X66744Y-34523D01*
X66756Y-34504D01*
X66766Y-34485D01*
X66774Y-34465D01*
X66781Y-34444D01*
X66786Y-34423D01*
X66789Y-34401D01*
X66790Y-34380D01*
X66540Y-34780D02*
X66574Y-34778D01*
X66609Y-34773D01*
X66643Y-34766D01*
X66676Y-34755D01*
X66709Y-34742D01*
X66740Y-34726D01*
X66769Y-34707D01*
X66797Y-34686D01*
X66822Y-34662D01*
X66846Y-34637D01*
X66867Y-34609D01*
X66886Y-34579D01*
X66902Y-34549D01*
X66915Y-34516D01*
X66926Y-34483D01*
X66933Y-34449D01*
X66938Y-34414D01*
X66940Y-34380D01*
G54D14*
X67153Y-33867D02*
X67106Y-33816D01*
X67055Y-33769D01*
X67000Y-33726D01*
X66941Y-33688D01*
X66879Y-33656D01*
X66814Y-33629D01*
X66748Y-33608D01*
X66680Y-33593D01*
X66611Y-33584D01*
X66541Y-33581D01*
X66540Y-33580D01*
X66540Y-33581D02*
X66471Y-33585D01*
X66402Y-33594D01*
X66334Y-33609D01*
X66267Y-33630D01*
X66203Y-33656D01*
X66141Y-33689D01*
X66082Y-33726D01*
X66027Y-33768D01*
X65976Y-33816D01*
X65928Y-33867D01*
X65886Y-33922D01*
X65849Y-33981D01*
X65836Y-34004D01*
X66541Y-35177D02*
X66610Y-35174D01*
X66679Y-35165D01*
X66747Y-35150D01*
X66814Y-35129D01*
X66878Y-35102D01*
X66940Y-35070D01*
X66998Y-35032D01*
X67054Y-34990D01*
X67105Y-34943D01*
X67149Y-34895D01*
X65846Y-34777D02*
X65884Y-34836D01*
X65926Y-34892D01*
X65973Y-34943D01*
X66024Y-34991D01*
X66079Y-35033D01*
X66138Y-35071D01*
X66200Y-35103D01*
X66264Y-35130D01*
X66331Y-35152D01*
X66399Y-35167D01*
X66468Y-35176D01*
X66538Y-35179D01*
X66540Y-35180D01*
X65836Y-34001D02*
X65806Y-34064D01*
X65781Y-34129D01*
X65762Y-34196D01*
X65749Y-34265D01*
X65742Y-34334D01*
X65740Y-34380D01*
X65741Y-34380D02*
X65745Y-34449D01*
X65754Y-34518D01*
X65769Y-34586D01*
X65790Y-34653D01*
X65816Y-34717D01*
X65849Y-34779D01*
X65860Y-34798D01*
G54D10*
X35310Y-26760D02*
X34310Y-26760D01*
X34310Y-26760D02*
X34310Y-24760D01*
X34310Y-24760D02*
X35310Y-24760D01*
X35310Y-24760D02*
X35310Y-26760D01*
X36310Y-26760D02*
X35310Y-26760D01*
X35310Y-26760D02*
X35310Y-24760D01*
X35310Y-24760D02*
X36310Y-24760D01*
X36310Y-24760D02*
X36310Y-26760D01*
X37310Y-26760D02*
X36310Y-26760D01*
X36310Y-26760D02*
X36310Y-24760D01*
X36310Y-24760D02*
X37310Y-24760D01*
X37310Y-24760D02*
X37310Y-26760D01*
X38310Y-26760D02*
X37310Y-26760D01*
X37310Y-26760D02*
X37310Y-24760D01*
X37310Y-24760D02*
X38310Y-24760D01*
X38310Y-24760D02*
X38310Y-26760D01*
X39310Y-26760D02*
X38310Y-26760D01*
X38310Y-26760D02*
X38310Y-24760D01*
X38310Y-24760D02*
X39310Y-24760D01*
X39310Y-24760D02*
X39310Y-26760D01*
X40310Y-26760D02*
X39310Y-26760D01*
X39310Y-26760D02*
X39310Y-24760D01*
X39310Y-24760D02*
X40310Y-24760D01*
X40310Y-24760D02*
X40310Y-26760D01*
M02*
