G04 (created by PCBNEW-RS274X (2012-apr-16-27)-stable) date Mon 28 Oct 2013 19:08:38 GMT*
G01*
G70*
G90*
%MOIN*%
G04 Gerber Fmt 3.4, Leading zero omitted, Abs format*
%FSLAX34Y34*%
G04 APERTURE LIST*
%ADD10C,0.006000*%
%ADD11C,0.059100*%
%ADD12C,0.118100*%
%ADD13R,0.055000X0.055000*%
%ADD14C,0.055000*%
%ADD15R,0.060000X0.060000*%
%ADD16C,0.060000*%
%ADD17C,0.150000*%
%ADD18R,0.150000X0.150000*%
%ADD19R,0.100000X0.100000*%
%ADD20C,0.100000*%
%ADD21R,0.062000X0.090000*%
%ADD22O,0.062000X0.090000*%
%ADD23C,0.070000*%
%ADD24R,0.070000X0.070000*%
%ADD25C,0.160000*%
%ADD26R,0.078700X0.078700*%
%ADD27C,0.078700*%
%ADD28C,0.066000*%
%ADD29R,0.050000X0.016000*%
%ADD30C,0.035000*%
%ADD31C,0.032000*%
%ADD32C,0.008000*%
%ADD33C,0.016000*%
%ADD34C,0.064000*%
G04 APERTURE END LIST*
G54D10*
G54D11*
X68100Y-30500D03*
X67300Y-30500D03*
X67300Y-31300D03*
X68100Y-31300D03*
G54D12*
X68900Y-28300D03*
X68900Y-33500D03*
G54D13*
X52400Y-20600D03*
G54D14*
X53400Y-20600D03*
X54400Y-20600D03*
X55400Y-20600D03*
X56400Y-20600D03*
X57400Y-20600D03*
X58400Y-20600D03*
X59400Y-20600D03*
G54D13*
X34200Y-15600D03*
G54D14*
X35200Y-15600D03*
X36200Y-15600D03*
X37200Y-15600D03*
X38200Y-15600D03*
X39200Y-15600D03*
X40200Y-15600D03*
X41200Y-15600D03*
G54D13*
X43300Y-15600D03*
G54D14*
X44300Y-15600D03*
X45300Y-15600D03*
X46300Y-15600D03*
X47300Y-15600D03*
X48300Y-15600D03*
X49300Y-15600D03*
X50300Y-15600D03*
G54D13*
X52400Y-15600D03*
G54D14*
X53400Y-15600D03*
X54400Y-15600D03*
X55400Y-15600D03*
X56400Y-15600D03*
X57400Y-15600D03*
X58400Y-15600D03*
X59400Y-15600D03*
G54D13*
X34200Y-20600D03*
G54D14*
X35200Y-20600D03*
X36200Y-20600D03*
X37200Y-20600D03*
X38200Y-20600D03*
X39200Y-20600D03*
X40200Y-20600D03*
X41200Y-20600D03*
G54D13*
X43300Y-20600D03*
G54D14*
X44300Y-20600D03*
X45300Y-20600D03*
X46300Y-20600D03*
X47300Y-20600D03*
X48300Y-20600D03*
X49300Y-20600D03*
X50300Y-20600D03*
X32750Y-28750D03*
X29750Y-28750D03*
X43700Y-38500D03*
X40700Y-38500D03*
X31000Y-35750D03*
X34000Y-35750D03*
X32750Y-32000D03*
X29750Y-32000D03*
X30750Y-26750D03*
X30750Y-23750D03*
X33200Y-19700D03*
X33200Y-16700D03*
X42300Y-19600D03*
X42300Y-16600D03*
X51300Y-19500D03*
X51300Y-16500D03*
X36500Y-22900D03*
X33500Y-22900D03*
X45900Y-21700D03*
X45900Y-24700D03*
X56800Y-22300D03*
X56800Y-25300D03*
X64240Y-35660D03*
X64240Y-38660D03*
X65430Y-35630D03*
X65430Y-38630D03*
G54D15*
X36200Y-14100D03*
G54D16*
X37200Y-14100D03*
X38200Y-14100D03*
X39200Y-14100D03*
G54D15*
X45300Y-14000D03*
G54D16*
X46300Y-14000D03*
X47300Y-14000D03*
X48300Y-14000D03*
G54D15*
X54400Y-14100D03*
G54D16*
X55400Y-14100D03*
X56400Y-14100D03*
X57400Y-14100D03*
G54D15*
X43200Y-36100D03*
G54D16*
X43200Y-37100D03*
X42200Y-36100D03*
X42200Y-37100D03*
X41200Y-36100D03*
X41200Y-37100D03*
G54D15*
X55000Y-17900D03*
G54D16*
X55000Y-16900D03*
X56000Y-17900D03*
X56000Y-16900D03*
X57000Y-17900D03*
X57000Y-16900D03*
G54D15*
X46200Y-17900D03*
G54D16*
X46200Y-16900D03*
X47200Y-17900D03*
X47200Y-16900D03*
X48200Y-17900D03*
X48200Y-16900D03*
G54D15*
X37200Y-18000D03*
G54D16*
X37200Y-17000D03*
X38200Y-18000D03*
X38200Y-17000D03*
X39200Y-18000D03*
X39200Y-17000D03*
G54D15*
X38300Y-24500D03*
G54D16*
X38300Y-25500D03*
X38300Y-26500D03*
G54D15*
X34300Y-24500D03*
G54D16*
X34300Y-25500D03*
X34300Y-26500D03*
G54D15*
X35300Y-24500D03*
G54D16*
X35300Y-25500D03*
X35300Y-26500D03*
G54D15*
X36300Y-24500D03*
G54D16*
X36300Y-25500D03*
X36300Y-26500D03*
G54D15*
X37300Y-24500D03*
G54D16*
X37300Y-25500D03*
X37300Y-26500D03*
G54D15*
X39300Y-24500D03*
G54D16*
X39300Y-25500D03*
X39300Y-26500D03*
G54D15*
X34600Y-18100D03*
G54D16*
X35600Y-18100D03*
G54D15*
X52600Y-18000D03*
G54D16*
X53600Y-18000D03*
G54D15*
X43700Y-18100D03*
G54D16*
X44700Y-18100D03*
G54D13*
X64700Y-21000D03*
G54D14*
X63700Y-21000D03*
G54D13*
X43800Y-23700D03*
G54D14*
X44800Y-23700D03*
X64800Y-22800D03*
X63800Y-22800D03*
X46200Y-38200D03*
X45200Y-38200D03*
X61400Y-22800D03*
X62400Y-22800D03*
X48200Y-38200D03*
X49200Y-38200D03*
X43800Y-25800D03*
X44800Y-25800D03*
X62460Y-28590D03*
X63460Y-28590D03*
X62460Y-26580D03*
X63460Y-26580D03*
X59340Y-38320D03*
X60340Y-38320D03*
X63330Y-31270D03*
X64330Y-31270D03*
X57900Y-36700D03*
X57900Y-37700D03*
X61400Y-20700D03*
X62400Y-20700D03*
G54D17*
X54800Y-11600D03*
X56800Y-11600D03*
G54D18*
X52800Y-11600D03*
G54D17*
X58800Y-11600D03*
X36500Y-11600D03*
X38500Y-11600D03*
G54D18*
X34500Y-11600D03*
G54D17*
X40500Y-11600D03*
X45900Y-11600D03*
X47900Y-11600D03*
G54D18*
X43900Y-11600D03*
G54D17*
X49900Y-11600D03*
G54D19*
X36500Y-38000D03*
G54D20*
X38500Y-38000D03*
G54D19*
X32500Y-38000D03*
G54D20*
X34500Y-38000D03*
G54D19*
X28500Y-38000D03*
G54D20*
X30500Y-38000D03*
G54D19*
X30400Y-11600D03*
G54D20*
X32400Y-11600D03*
G54D19*
X24500Y-38000D03*
G54D20*
X26500Y-38000D03*
G54D21*
X35800Y-34200D03*
G54D22*
X36800Y-34200D03*
X37800Y-34200D03*
X38800Y-34200D03*
X39800Y-34200D03*
X40800Y-34200D03*
X41800Y-34200D03*
X42800Y-34200D03*
X43800Y-34200D03*
X44800Y-34200D03*
X45800Y-34200D03*
X46800Y-34200D03*
X47800Y-34200D03*
X48800Y-34200D03*
X49800Y-34200D03*
X50800Y-34200D03*
X51800Y-34200D03*
X52800Y-34200D03*
X53800Y-34200D03*
X54800Y-34200D03*
X54800Y-28200D03*
X53800Y-28200D03*
X52800Y-28200D03*
X51800Y-28200D03*
X50800Y-28200D03*
X49800Y-28200D03*
X48800Y-28200D03*
X47800Y-28200D03*
X46800Y-28200D03*
X45800Y-28200D03*
X44800Y-28200D03*
X43800Y-28200D03*
X42800Y-28200D03*
X41800Y-28200D03*
X40800Y-28200D03*
X39800Y-28200D03*
X38800Y-28200D03*
X37800Y-28200D03*
X36800Y-28200D03*
X35800Y-28200D03*
G54D13*
X50600Y-38200D03*
G54D14*
X51600Y-38200D03*
X52600Y-38200D03*
X53600Y-38200D03*
X54600Y-38200D03*
X55600Y-38200D03*
X56600Y-38200D03*
X53000Y-26000D03*
X56000Y-26000D03*
X58500Y-30100D03*
X58500Y-27100D03*
X59600Y-31100D03*
X59600Y-28100D03*
G54D15*
X57000Y-29100D03*
G54D16*
X57000Y-30100D03*
X57000Y-31100D03*
X57000Y-32100D03*
G54D19*
X61800Y-11700D03*
G54D20*
X63800Y-11700D03*
G54D23*
X46200Y-36200D03*
X48200Y-36200D03*
G54D13*
X30250Y-14250D03*
G54D14*
X30250Y-15250D03*
X31250Y-15250D03*
G54D13*
X31000Y-21250D03*
G54D14*
X31000Y-22250D03*
X32000Y-22250D03*
X31250Y-17000D03*
X31250Y-20000D03*
X32000Y-23750D03*
X32000Y-26750D03*
G54D23*
X29500Y-16500D03*
G54D24*
X29500Y-20500D03*
G54D23*
X29500Y-23250D03*
G54D24*
X29500Y-27250D03*
G54D19*
X67000Y-19500D03*
G54D20*
X67000Y-21500D03*
G54D19*
X67000Y-23500D03*
G54D20*
X67000Y-25500D03*
G54D19*
X21600Y-14500D03*
G54D20*
X21600Y-16500D03*
G54D19*
X21600Y-26100D03*
G54D20*
X21600Y-28100D03*
G54D19*
X21600Y-18600D03*
G54D20*
X21600Y-20600D03*
G54D19*
X21600Y-30200D03*
G54D20*
X21600Y-32200D03*
G54D23*
X32250Y-30250D03*
X31250Y-30250D03*
G54D24*
X30250Y-30250D03*
G54D23*
X32250Y-33500D03*
X31250Y-33500D03*
G54D24*
X30250Y-33500D03*
G54D23*
X61500Y-18500D03*
X62500Y-18500D03*
G54D24*
X63500Y-18500D03*
G54D25*
X68500Y-38500D03*
X68500Y-11500D03*
X21500Y-11500D03*
X21500Y-38500D03*
G54D26*
X27800Y-22450D03*
G54D27*
X27800Y-20450D03*
X27800Y-18450D03*
X27800Y-12450D03*
X24800Y-12450D03*
X24800Y-18450D03*
X24800Y-20450D03*
X24800Y-22450D03*
G54D26*
X27750Y-34800D03*
G54D27*
X27750Y-32800D03*
X27750Y-30800D03*
X27750Y-24800D03*
X24750Y-24800D03*
X24750Y-30800D03*
X24750Y-32800D03*
X24750Y-34800D03*
G54D28*
X63950Y-34370D03*
X64950Y-34370D03*
X65940Y-34380D03*
X66940Y-34380D03*
G54D29*
X60080Y-36960D03*
X60080Y-36710D03*
X60080Y-36450D03*
X60080Y-36190D03*
X60080Y-35940D03*
X60080Y-35680D03*
X60080Y-35420D03*
X60080Y-35170D03*
X60080Y-34910D03*
X60080Y-34660D03*
X60080Y-34400D03*
X60080Y-34140D03*
X60080Y-33890D03*
X60080Y-33630D03*
X62880Y-33630D03*
X62880Y-33890D03*
X62880Y-34130D03*
X62880Y-34400D03*
X62880Y-34660D03*
X62880Y-34910D03*
X62880Y-35170D03*
X62880Y-35420D03*
X62880Y-35680D03*
X62880Y-35940D03*
X62880Y-36190D03*
X62880Y-36450D03*
X62880Y-36710D03*
X62880Y-36960D03*
G54D30*
X32550Y-14750D03*
X58940Y-32460D03*
X58930Y-33990D03*
X32550Y-19250D03*
X59030Y-36970D03*
X39650Y-35660D03*
X60600Y-19900D03*
X60600Y-26500D03*
X60600Y-24500D03*
X58400Y-18100D03*
X52400Y-14350D03*
X42600Y-14300D03*
X43300Y-14300D03*
X34200Y-14000D03*
G54D31*
X61500Y-16500D02*
X61500Y-17500D01*
X61400Y-20700D02*
X61400Y-22800D01*
X61500Y-17500D02*
X61500Y-18500D01*
X66500Y-16000D02*
X67000Y-16500D01*
X61500Y-18500D02*
X61500Y-20600D01*
X61500Y-20600D02*
X61400Y-20700D01*
X67000Y-16500D02*
X67000Y-17500D01*
X61500Y-20600D02*
X61400Y-20700D01*
X62000Y-16000D02*
X61500Y-16500D01*
X67000Y-19500D02*
X67000Y-17500D01*
X66500Y-16000D02*
X62000Y-16000D01*
X68100Y-30500D02*
X68900Y-30500D01*
X26400Y-10400D02*
X23700Y-10400D01*
G54D32*
X35300Y-26300D02*
X34800Y-25800D01*
G54D31*
X35600Y-17000D02*
X35600Y-18100D01*
X65320Y-26930D02*
X65300Y-26910D01*
X64600Y-25300D02*
X65320Y-26930D01*
X63620Y-25300D02*
X64530Y-25300D01*
X64530Y-25300D02*
X64600Y-25300D01*
X65320Y-26930D02*
X65300Y-26910D01*
X68900Y-26930D02*
X65320Y-26930D01*
X35725Y-39550D02*
X38500Y-39550D01*
X42850Y-39550D02*
X45200Y-39550D01*
X23000Y-38500D02*
X23000Y-36600D01*
X30250Y-14250D02*
X29000Y-13000D01*
X41900Y-13775D02*
X41875Y-13750D01*
X41900Y-14800D02*
X41900Y-14400D01*
X20500Y-20600D02*
X20500Y-16500D01*
X68900Y-26450D02*
X68900Y-26930D01*
X48650Y-39550D02*
X49300Y-39550D01*
X68850Y-30450D02*
X68900Y-30450D01*
X60200Y-10400D02*
X60200Y-11000D01*
X67999Y-34486D02*
X68550Y-33850D01*
X43825Y-13775D02*
X41900Y-13775D01*
X68550Y-33850D02*
X68900Y-33500D01*
G54D32*
X35300Y-26500D02*
X35300Y-26300D01*
G54D31*
X41875Y-13750D02*
X41900Y-13775D01*
X60200Y-14800D02*
X59400Y-15600D01*
X68900Y-29550D02*
X68900Y-30450D01*
X51200Y-14700D02*
X51200Y-14300D01*
X20500Y-13500D02*
X21000Y-13000D01*
X63800Y-11700D02*
X63800Y-11405D01*
X41900Y-14400D02*
X41900Y-13750D01*
X63800Y-11405D02*
X62996Y-10400D01*
X68900Y-30450D02*
X68900Y-33500D01*
X33500Y-21250D02*
X32125Y-19875D01*
X20500Y-16500D02*
X21600Y-16500D01*
X56800Y-25300D02*
X63620Y-25300D01*
X21600Y-32200D02*
X20500Y-32200D01*
X38500Y-39500D02*
X38500Y-39550D01*
X51250Y-13800D02*
X51200Y-13800D01*
X53400Y-16300D02*
X53600Y-16500D01*
X32400Y-11600D02*
X32400Y-11100D01*
G54D32*
X34300Y-26300D02*
X33800Y-25800D01*
G54D31*
X66200Y-39544D02*
X68000Y-37000D01*
X60200Y-11000D02*
X60200Y-14800D01*
X45800Y-32400D02*
X45800Y-34200D01*
X32400Y-10400D02*
X41900Y-10400D01*
X21073Y-36000D02*
X20500Y-35370D01*
G54D32*
X34300Y-26300D02*
X34300Y-26500D01*
G54D31*
X57900Y-39550D02*
X57900Y-39500D01*
X30250Y-32000D02*
X30250Y-33500D01*
X45200Y-39500D02*
X45200Y-39550D01*
X31000Y-19250D02*
X30750Y-19250D01*
X30500Y-39550D02*
X35400Y-39550D01*
X35400Y-39550D02*
X35725Y-39550D01*
X68000Y-14000D02*
X68000Y-15500D01*
X50300Y-15600D02*
X51200Y-14700D01*
X68500Y-13400D02*
X68000Y-14000D01*
X63700Y-21000D02*
X63700Y-20400D01*
X53400Y-15600D02*
X53400Y-14100D01*
X44325Y-14275D02*
X43825Y-13775D01*
X44800Y-25800D02*
X44800Y-28200D01*
G54D32*
X37800Y-25000D02*
X38800Y-25000D01*
G54D31*
X44800Y-23700D02*
X44800Y-24700D01*
X44300Y-15600D02*
X44325Y-14275D01*
X35200Y-15600D02*
X35200Y-16600D01*
X41900Y-13775D02*
X41900Y-13750D01*
X30250Y-32000D02*
X30200Y-32000D01*
X51200Y-13800D02*
X51200Y-10400D01*
X68000Y-21500D02*
X67000Y-21500D01*
X63800Y-12800D02*
X63800Y-11700D01*
G54D32*
X37300Y-26300D02*
X36800Y-25800D01*
G54D31*
X62400Y-20700D02*
X62400Y-22800D01*
X60200Y-10400D02*
X62996Y-10400D01*
X45200Y-38200D02*
X45200Y-35500D01*
X41200Y-37100D02*
X41200Y-37600D01*
X67950Y-25500D02*
X68900Y-26450D01*
G54D32*
X37800Y-25800D02*
X37800Y-25000D01*
G54D31*
X23700Y-10400D02*
X23600Y-10400D01*
X53400Y-15600D02*
X53400Y-16300D01*
X20500Y-31550D02*
X20500Y-28100D01*
X29000Y-10400D02*
X26400Y-10400D01*
X51100Y-10400D02*
X60200Y-10400D01*
X45800Y-34900D02*
X45800Y-34200D01*
X53100Y-13800D02*
X51200Y-13800D01*
X44800Y-28200D02*
X44800Y-31400D01*
X63700Y-20400D02*
X63600Y-20300D01*
X51200Y-13800D02*
X51250Y-13800D01*
X68000Y-21500D02*
X68000Y-17000D01*
X30500Y-39550D02*
X30500Y-39500D01*
X30500Y-38000D02*
X30500Y-39550D01*
X65000Y-14000D02*
X63800Y-12800D01*
X68900Y-30500D02*
X68850Y-30450D01*
X41200Y-15500D02*
X41900Y-14800D01*
G54D32*
X39300Y-26300D02*
X39300Y-26500D01*
X36300Y-26300D02*
X36300Y-26500D01*
X35800Y-25800D02*
X36300Y-26300D01*
G54D31*
X30500Y-39500D02*
X30500Y-39550D01*
X27500Y-39550D02*
X24050Y-39550D01*
X32402Y-12400D02*
X32400Y-11600D01*
X41900Y-10400D02*
X51100Y-10400D01*
X57900Y-39500D02*
X57900Y-39550D01*
X38500Y-38000D02*
X38500Y-39550D01*
X22500Y-13000D02*
X23000Y-12500D01*
X20500Y-13600D02*
X20500Y-16500D01*
X20550Y-32200D02*
X20500Y-32200D01*
X62500Y-17500D02*
X63000Y-17000D01*
X56600Y-39550D02*
X57900Y-39550D01*
X41500Y-39550D02*
X41500Y-39500D01*
X41500Y-39550D02*
X42850Y-39550D01*
X23000Y-36600D02*
X22400Y-36000D01*
G54D32*
X39300Y-26300D02*
X38800Y-25800D01*
G54D31*
X67000Y-25500D02*
X67950Y-25500D01*
X62400Y-18600D02*
X62500Y-18500D01*
X29000Y-13000D02*
X29000Y-10400D01*
X62500Y-18500D02*
X62500Y-17500D01*
X23000Y-12500D02*
X23000Y-11000D01*
X51200Y-14300D02*
X51200Y-13800D01*
G54D32*
X33500Y-24700D02*
X33800Y-25000D01*
X35800Y-25000D02*
X35800Y-25800D01*
G54D31*
X45200Y-39550D02*
X48650Y-39550D01*
X51200Y-10400D02*
X51100Y-10400D01*
X68900Y-26930D02*
X68900Y-28300D01*
X44700Y-24700D02*
X44800Y-24700D01*
X21500Y-13000D02*
X22500Y-13000D01*
X44300Y-16100D02*
X44700Y-16500D01*
X30500Y-38000D02*
X30500Y-37500D01*
X44300Y-15600D02*
X44300Y-16100D01*
X68000Y-37000D02*
X67999Y-34486D01*
X35700Y-39550D02*
X35725Y-39525D01*
X68500Y-11500D02*
X68500Y-13400D01*
X35200Y-15200D02*
X35200Y-13800D01*
X31550Y-13750D02*
X32550Y-14750D01*
X41200Y-15600D02*
X41200Y-15500D01*
X63000Y-17000D02*
X65000Y-17000D01*
X67000Y-14000D02*
X68000Y-14000D01*
X21600Y-28100D02*
X20500Y-28100D01*
X41200Y-37600D02*
X41500Y-37900D01*
X56600Y-38200D02*
X56600Y-39550D01*
X65500Y-17500D02*
X65500Y-20500D01*
X66500Y-21500D02*
X67000Y-21500D01*
X35200Y-13800D02*
X32402Y-12400D01*
X44800Y-24700D02*
X44800Y-25800D01*
X53400Y-14100D02*
X53100Y-13800D01*
X20500Y-13600D02*
X20500Y-13500D01*
G54D33*
X62370Y-35170D02*
X62075Y-35170D01*
G54D31*
X21600Y-20600D02*
X20500Y-20600D01*
X53600Y-16500D02*
X53600Y-18000D01*
G54D33*
X62330Y-36450D02*
X62075Y-36195D01*
G54D32*
X34800Y-25800D02*
X34800Y-25000D01*
G54D31*
X21500Y-11500D02*
X21500Y-13000D01*
X33500Y-22900D02*
X33500Y-24200D01*
X32400Y-11600D02*
X32400Y-10400D01*
G54D32*
X62880Y-36450D02*
X62330Y-36450D01*
X62880Y-36190D02*
X62080Y-36190D01*
G54D31*
X30300Y-29300D02*
X30300Y-30200D01*
G54D32*
X62075Y-35170D02*
X62060Y-35170D01*
X38800Y-25800D02*
X38800Y-25000D01*
X62080Y-36190D02*
X62075Y-36195D01*
G54D31*
X49200Y-39550D02*
X49250Y-39500D01*
G54D32*
X62100Y-39530D02*
X62100Y-39500D01*
X62060Y-35170D02*
X62075Y-35170D01*
G54D33*
X62040Y-34400D02*
X61660Y-34020D01*
X61660Y-34020D02*
X61660Y-32100D01*
G54D31*
X29600Y-36600D02*
X29600Y-34150D01*
X29000Y-10400D02*
X29000Y-10500D01*
X32550Y-19250D02*
X32050Y-19250D01*
X65450Y-39550D02*
X66200Y-39544D01*
X68500Y-38500D02*
X68500Y-37500D01*
X30500Y-20750D02*
X31000Y-21250D01*
X30250Y-14200D02*
X30700Y-13750D01*
X30250Y-14250D02*
X30250Y-14200D01*
X45200Y-38200D02*
X45200Y-39550D01*
X30750Y-19250D02*
X30500Y-19500D01*
X63600Y-20300D02*
X62500Y-20300D01*
X62500Y-20600D02*
X62400Y-20700D01*
G54D33*
X62075Y-36195D02*
X62075Y-35170D01*
G54D31*
X20500Y-32200D02*
X20500Y-31550D01*
G54D32*
X34800Y-25000D02*
X33800Y-25000D01*
G54D31*
X32400Y-10400D02*
X29000Y-10400D01*
G54D32*
X33500Y-24700D02*
X33500Y-24200D01*
X62880Y-35170D02*
X62370Y-35170D01*
G54D31*
X63460Y-29860D02*
X63850Y-29860D01*
X59010Y-32050D02*
X58960Y-32100D01*
G54D33*
X59580Y-35420D02*
X58930Y-34770D01*
G54D31*
X57000Y-32100D02*
X58960Y-32100D01*
X58960Y-32100D02*
X59010Y-32050D01*
X61660Y-32050D02*
X59010Y-32050D01*
X63460Y-25460D02*
X63620Y-25300D01*
X63460Y-26580D02*
X63460Y-25460D01*
X63850Y-29860D02*
X64330Y-30340D01*
G54D33*
X61660Y-32100D02*
X61660Y-32050D01*
G54D31*
X64330Y-30340D02*
X64330Y-31270D01*
X61660Y-32050D02*
X61660Y-30910D01*
X62380Y-29860D02*
X63460Y-29860D01*
X61660Y-30580D02*
X62380Y-29860D01*
X61660Y-30910D02*
X61660Y-30580D01*
X63460Y-29830D02*
X63460Y-29860D01*
X63460Y-29860D02*
X63460Y-29830D01*
X63460Y-28590D02*
X63460Y-29860D01*
G54D33*
X58930Y-34770D02*
X58930Y-33990D01*
G54D32*
X62880Y-34400D02*
X62370Y-34400D01*
X62080Y-39550D02*
X62100Y-39530D01*
X61640Y-32100D02*
X61660Y-32100D01*
X61660Y-32100D02*
X61640Y-32100D01*
G54D31*
X23000Y-38500D02*
X24050Y-39550D01*
G54D33*
X58960Y-32440D02*
X58960Y-32100D01*
G54D31*
X68000Y-24500D02*
X68000Y-21500D01*
X30200Y-32000D02*
X30250Y-32000D01*
X30700Y-13750D02*
X31550Y-13750D01*
X44800Y-24700D02*
X44700Y-24700D01*
G54D32*
X60080Y-35420D02*
X59580Y-35420D01*
G54D33*
X58940Y-32460D02*
X58960Y-32440D01*
X62370Y-34400D02*
X62040Y-34400D01*
G54D31*
X30500Y-37500D02*
X29600Y-36600D01*
X62100Y-39550D02*
X65050Y-39550D01*
X57900Y-39550D02*
X59000Y-39550D01*
X21500Y-38500D02*
X23000Y-38500D01*
X61200Y-39550D02*
X62100Y-39550D01*
X41900Y-13750D02*
X41900Y-10400D01*
X35200Y-15600D02*
X35200Y-15200D01*
X20500Y-23100D02*
X20500Y-20600D01*
G54D32*
X37300Y-26500D02*
X37300Y-26300D01*
G54D31*
X29000Y-10500D02*
X29000Y-10400D01*
G54D32*
X36800Y-25000D02*
X35800Y-25000D01*
G54D31*
X22400Y-36000D02*
X21073Y-36000D01*
X35725Y-39525D02*
X35725Y-39550D01*
X41500Y-39500D02*
X41500Y-39550D01*
X45200Y-39550D02*
X45200Y-39500D01*
X68900Y-28300D02*
X68900Y-29550D01*
X33500Y-22900D02*
X33500Y-21250D01*
X62400Y-22800D02*
X63800Y-22800D01*
X63460Y-26580D02*
X63460Y-28590D01*
X65500Y-20500D02*
X66500Y-21500D01*
G54D32*
X34800Y-25000D02*
X35800Y-25000D01*
X38300Y-26300D02*
X37800Y-25800D01*
G54D31*
X27500Y-39550D02*
X30500Y-39550D01*
X68500Y-37500D02*
X68000Y-37000D01*
X62500Y-20300D02*
X62500Y-20600D01*
X49300Y-39500D02*
X49300Y-39550D01*
X31500Y-19250D02*
X31000Y-19250D01*
X65000Y-17000D02*
X65500Y-17500D01*
X30500Y-19500D02*
X30500Y-20750D01*
X41500Y-37900D02*
X41500Y-39550D01*
X32050Y-19250D02*
X31775Y-19525D01*
X59000Y-39550D02*
X61200Y-39550D01*
X20500Y-32200D02*
X20550Y-32200D01*
X29750Y-32000D02*
X30250Y-32000D01*
X44700Y-16500D02*
X44700Y-18100D01*
G54D32*
X62100Y-39500D02*
X62100Y-39550D01*
G54D31*
X31775Y-19525D02*
X31500Y-19250D01*
X49250Y-39500D02*
X49300Y-39500D01*
X21000Y-13000D02*
X21500Y-13000D01*
X62400Y-20700D02*
X62400Y-18600D01*
X68000Y-17000D02*
X68000Y-15500D01*
X49200Y-38200D02*
X49200Y-39550D01*
X56600Y-39500D02*
X56600Y-39550D01*
G54D32*
X33800Y-25800D02*
X33800Y-25000D01*
G54D31*
X65200Y-39550D02*
X65050Y-39550D01*
X30250Y-30250D02*
X30250Y-32000D01*
X29600Y-34150D02*
X30250Y-33500D01*
X23600Y-10400D02*
X23000Y-11000D01*
X30300Y-30200D02*
X30250Y-30250D01*
X32125Y-19875D02*
X31775Y-19525D01*
X38500Y-39550D02*
X41500Y-39550D01*
G54D33*
X62080Y-36190D02*
X62080Y-39550D01*
G54D31*
X20500Y-28100D02*
X20500Y-23100D01*
X56600Y-39550D02*
X56600Y-39500D01*
X66200Y-39544D02*
X66200Y-39544D01*
X44800Y-31400D02*
X45800Y-32400D01*
X23000Y-38500D02*
X23000Y-38500D01*
X49300Y-39550D02*
X56600Y-39550D01*
G54D32*
X36800Y-25800D02*
X36800Y-25000D01*
X37800Y-25000D02*
X36800Y-25000D01*
G54D31*
X65050Y-39550D02*
X65450Y-39550D01*
G54D32*
X38300Y-26500D02*
X38300Y-26300D01*
G54D31*
X35200Y-16600D02*
X35600Y-17000D01*
X45200Y-35500D02*
X45800Y-34900D01*
X57900Y-37700D02*
X57900Y-39550D01*
X65000Y-14000D02*
X67000Y-14000D01*
X20500Y-35370D02*
X20500Y-32200D01*
X29750Y-28750D02*
X30300Y-29300D01*
X67000Y-25500D02*
X68000Y-24500D01*
X38500Y-39550D02*
X38500Y-39500D01*
X45900Y-24700D02*
X44800Y-24700D01*
G54D33*
X54600Y-30100D02*
X53800Y-29300D01*
X53800Y-29300D02*
X53800Y-28200D01*
X57000Y-30100D02*
X54600Y-30100D01*
X57000Y-30100D02*
X58500Y-30100D01*
X57000Y-31100D02*
X53900Y-31100D01*
X53900Y-31100D02*
X52800Y-30000D01*
X57000Y-31100D02*
X59600Y-31100D01*
X52800Y-30000D02*
X52800Y-28200D01*
G54D32*
X60080Y-36960D02*
X60490Y-36960D01*
G54D33*
X60490Y-36960D02*
X60880Y-36960D01*
X48800Y-34000D02*
X48800Y-34200D01*
X55916Y-32340D02*
X56546Y-33100D01*
X50440Y-32340D02*
X55916Y-32340D01*
X56546Y-33100D02*
X56620Y-33100D01*
X60910Y-33100D02*
X60710Y-33100D01*
X60880Y-36960D02*
X61290Y-36550D01*
X56620Y-33100D02*
X57400Y-33100D01*
X61290Y-33480D02*
X60910Y-33100D01*
X61290Y-36550D02*
X61290Y-33480D01*
X57400Y-33100D02*
X60710Y-33100D01*
X48800Y-34000D02*
X50440Y-32340D01*
X55870Y-33680D02*
X55880Y-33680D01*
X59560Y-35940D02*
X59230Y-35610D01*
X58530Y-34910D02*
X59230Y-35610D01*
X49800Y-34000D02*
X50720Y-33080D01*
X57100Y-34910D02*
X55870Y-33680D01*
G54D32*
X59560Y-35940D02*
X60080Y-35940D01*
G54D33*
X50720Y-33080D02*
X55280Y-33080D01*
X49800Y-34200D02*
X49800Y-34000D01*
X57100Y-34910D02*
X58530Y-34910D01*
X55280Y-33080D02*
X55880Y-33680D01*
X43300Y-35000D02*
X43300Y-33600D01*
X43300Y-33600D02*
X43000Y-33300D01*
X43200Y-36100D02*
X43200Y-35100D01*
X43000Y-33300D02*
X42100Y-33300D01*
X42100Y-33300D02*
X41800Y-33600D01*
X41800Y-33600D02*
X41800Y-34200D01*
X43200Y-35100D02*
X43300Y-35000D01*
X41700Y-35300D02*
X41700Y-36600D01*
X41700Y-36600D02*
X42200Y-37100D01*
X40800Y-34200D02*
X40800Y-34400D01*
X40800Y-34400D02*
X41700Y-35300D01*
X34800Y-36400D02*
X34650Y-36400D01*
X34650Y-36400D02*
X34000Y-35750D01*
X39800Y-34400D02*
X37800Y-36400D01*
X37800Y-36400D02*
X34800Y-36400D01*
X39800Y-34200D02*
X39800Y-34400D01*
X31400Y-27150D02*
X32000Y-27750D01*
X38800Y-34500D02*
X37400Y-35900D01*
X33000Y-27750D02*
X32000Y-27750D01*
X38800Y-34200D02*
X38800Y-34500D01*
X33600Y-34500D02*
X33600Y-31500D01*
X35000Y-35900D02*
X33600Y-34500D01*
X31400Y-27100D02*
X31400Y-24400D01*
X37400Y-35900D02*
X35000Y-35900D01*
X33600Y-28350D02*
X33000Y-27750D01*
X33600Y-31500D02*
X33600Y-31400D01*
X33600Y-28350D02*
X33600Y-31500D01*
X30750Y-23750D02*
X31400Y-24400D01*
X31400Y-27100D02*
X31400Y-27150D01*
G54D31*
X32500Y-38500D02*
X33000Y-39000D01*
X32500Y-38000D02*
X32500Y-38500D01*
X35500Y-39000D02*
X36500Y-38000D01*
X33000Y-39000D02*
X35500Y-39000D01*
X30250Y-36000D02*
X31000Y-36750D01*
X33250Y-36750D02*
X34500Y-38000D01*
X30250Y-35250D02*
X30250Y-36000D01*
X31250Y-33500D02*
X31250Y-34250D01*
X31000Y-36750D02*
X33250Y-36750D01*
X31250Y-34250D02*
X30250Y-35250D01*
X28500Y-38500D02*
X28500Y-38000D01*
X28000Y-39000D02*
X28500Y-38500D01*
X24500Y-38000D02*
X24500Y-38500D01*
X25000Y-39000D02*
X28000Y-39000D01*
X24500Y-38500D02*
X25000Y-39000D01*
X28750Y-34250D02*
X28750Y-35750D01*
X31250Y-30250D02*
X31250Y-28750D01*
X28750Y-28750D02*
X28750Y-34250D01*
X30500Y-28000D02*
X29500Y-28000D01*
X28750Y-35750D02*
X26500Y-38000D01*
X31250Y-28750D02*
X30500Y-28000D01*
X29500Y-28000D02*
X28750Y-28750D01*
G54D33*
X29500Y-24500D02*
X29500Y-23250D01*
X24750Y-24800D02*
X26050Y-24800D01*
X30250Y-23250D02*
X30500Y-23000D01*
X29500Y-23250D02*
X30250Y-23250D01*
X26050Y-24800D02*
X26851Y-25700D01*
X26851Y-25700D02*
X28300Y-25700D01*
X32000Y-22700D02*
X32000Y-22250D01*
X31700Y-23000D02*
X32000Y-22700D01*
X30500Y-23000D02*
X31700Y-23000D01*
X28300Y-25700D02*
X29500Y-24500D01*
G54D34*
X24800Y-17400D02*
X25000Y-17400D01*
X24800Y-17600D02*
X25000Y-17400D01*
X21900Y-14500D02*
X24800Y-17400D01*
X27800Y-17650D02*
X27800Y-18450D01*
X27550Y-17400D02*
X27800Y-17650D01*
X24800Y-18450D02*
X24800Y-17600D01*
X21600Y-14500D02*
X21900Y-14500D01*
X25000Y-17400D02*
X27550Y-17400D01*
G54D33*
X32100Y-15000D02*
X32100Y-16150D01*
X32100Y-16150D02*
X31250Y-17000D01*
X30350Y-15250D02*
X31100Y-14500D01*
X31600Y-14500D02*
X32100Y-15000D01*
X30250Y-15250D02*
X30350Y-15250D01*
X31100Y-14500D02*
X31600Y-14500D01*
X31000Y-22250D02*
X31050Y-22250D01*
X32600Y-23150D02*
X32000Y-23750D01*
X32200Y-21700D02*
X32600Y-22100D01*
X32600Y-22100D02*
X32600Y-23150D01*
X31050Y-22250D02*
X31600Y-21700D01*
X31600Y-21700D02*
X32200Y-21700D01*
X54800Y-34500D02*
X55600Y-35300D01*
X54800Y-34200D02*
X54800Y-34500D01*
X55600Y-35300D02*
X55600Y-38200D01*
X51600Y-35400D02*
X51600Y-38200D01*
X50800Y-34600D02*
X51600Y-35400D01*
X50800Y-34200D02*
X50800Y-34600D01*
X51800Y-34500D02*
X52600Y-35300D01*
X51800Y-34200D02*
X51800Y-34500D01*
X52600Y-35300D02*
X52600Y-38200D01*
X53600Y-35300D02*
X53600Y-38200D01*
X52800Y-34200D02*
X52800Y-34500D01*
X52800Y-34500D02*
X53600Y-35300D01*
X54600Y-35300D02*
X54600Y-38200D01*
X53800Y-34500D02*
X54600Y-35300D01*
X53800Y-34200D02*
X53800Y-34500D01*
X46800Y-34200D02*
X46800Y-35600D01*
X46800Y-35600D02*
X46200Y-36200D01*
X46200Y-36200D02*
X46200Y-38200D01*
X47800Y-35800D02*
X48200Y-36200D01*
X47800Y-34200D02*
X47800Y-35800D01*
X48200Y-36200D02*
X48200Y-38200D01*
X35800Y-20100D02*
X37200Y-18700D01*
X35200Y-20600D02*
X35200Y-21600D01*
X35300Y-20600D02*
X35800Y-20100D01*
X35200Y-21600D02*
X36500Y-22900D01*
X35200Y-20600D02*
X35300Y-20600D01*
X37200Y-18700D02*
X37200Y-18000D01*
X56000Y-18900D02*
X56000Y-17900D01*
X54400Y-20600D02*
X54400Y-20500D01*
X54400Y-20500D02*
X56000Y-18900D01*
X55400Y-20600D02*
X57000Y-19000D01*
X57000Y-19000D02*
X57000Y-17900D01*
G54D31*
X57400Y-20600D02*
X56400Y-20600D01*
X52800Y-11600D02*
X52800Y-12500D01*
X54400Y-14100D02*
X54400Y-15600D01*
X52800Y-12500D02*
X54400Y-14100D01*
X54800Y-12800D02*
X54800Y-11600D01*
X55400Y-13400D02*
X54800Y-12800D01*
X55400Y-14100D02*
X55400Y-15600D01*
X55400Y-14100D02*
X55400Y-13400D01*
X56800Y-12800D02*
X56800Y-11600D01*
X56400Y-13200D02*
X56800Y-12800D01*
X56400Y-14100D02*
X56400Y-15600D01*
X56400Y-14100D02*
X56400Y-13200D01*
X58800Y-11600D02*
X58800Y-12700D01*
X58800Y-12700D02*
X57400Y-14100D01*
X57400Y-14100D02*
X57400Y-15600D01*
X43900Y-11600D02*
X43900Y-12600D01*
X43900Y-12600D02*
X45300Y-14000D01*
X45300Y-14000D02*
X45300Y-15600D01*
X46300Y-13200D02*
X45900Y-12800D01*
X46300Y-14000D02*
X46300Y-15600D01*
X46300Y-14000D02*
X46300Y-13200D01*
X45900Y-12800D02*
X45900Y-11600D01*
X47300Y-14000D02*
X47300Y-15600D01*
X47300Y-13500D02*
X47900Y-12900D01*
X47900Y-12900D02*
X47900Y-11600D01*
X47300Y-14000D02*
X47300Y-13500D01*
X49900Y-12400D02*
X48300Y-14000D01*
X48300Y-14000D02*
X48300Y-15600D01*
X49900Y-11600D02*
X49900Y-12400D01*
X34500Y-11600D02*
X34500Y-12300D01*
X34500Y-12300D02*
X36200Y-14100D01*
X36200Y-14100D02*
X36200Y-15600D01*
X37200Y-14100D02*
X37200Y-13500D01*
X37200Y-14100D02*
X37200Y-15600D01*
X37200Y-13500D02*
X36500Y-12800D01*
X36500Y-12800D02*
X36500Y-11600D01*
X38500Y-12800D02*
X38500Y-11600D01*
X38200Y-15600D02*
X38200Y-14100D01*
X38200Y-13100D02*
X38500Y-12800D01*
X38200Y-14100D02*
X38200Y-13100D01*
X40500Y-11600D02*
X40500Y-12700D01*
X39200Y-14100D02*
X39200Y-15600D01*
X40500Y-12700D02*
X39200Y-14100D01*
G54D33*
X53400Y-20600D02*
X53400Y-21400D01*
X53400Y-20300D02*
X53400Y-20600D01*
X54300Y-22300D02*
X56800Y-22300D01*
X53400Y-21400D02*
X54300Y-22300D01*
X55000Y-17900D02*
X55000Y-18700D01*
X55000Y-18700D02*
X53400Y-20300D01*
G54D32*
X60080Y-36710D02*
X59600Y-36710D01*
G54D33*
X59450Y-37430D02*
X60340Y-38320D01*
X59450Y-36860D02*
X59450Y-37430D01*
X59600Y-36710D02*
X59450Y-36860D01*
X45300Y-20600D02*
X47200Y-18700D01*
X47200Y-18700D02*
X47200Y-17900D01*
X48200Y-18700D02*
X48200Y-17900D01*
X46300Y-20600D02*
X48200Y-18700D01*
G54D31*
X47300Y-20600D02*
X48300Y-20600D01*
G54D33*
X38200Y-18600D02*
X38200Y-18000D01*
X36200Y-20600D02*
X38200Y-18600D01*
X37200Y-20600D02*
X39200Y-18600D01*
X39200Y-18600D02*
X39200Y-18000D01*
G54D31*
X38200Y-20600D02*
X39200Y-20600D01*
G54D33*
X44300Y-21300D02*
X44700Y-21700D01*
X44300Y-20600D02*
X46200Y-18700D01*
X46200Y-18700D02*
X46200Y-17900D01*
X44700Y-21700D02*
X45900Y-21700D01*
X44300Y-20600D02*
X44300Y-21300D01*
X25450Y-12450D02*
X29500Y-16500D01*
X31250Y-15550D02*
X30300Y-16500D01*
X24800Y-12450D02*
X25450Y-12450D01*
X30300Y-16500D02*
X29500Y-16500D01*
X31250Y-15250D02*
X31250Y-15550D01*
G54D34*
X24750Y-34800D02*
X27750Y-34800D01*
X23650Y-30950D02*
X23650Y-33700D01*
X22900Y-30200D02*
X23650Y-30950D01*
X21600Y-30200D02*
X22900Y-30200D01*
X23650Y-33700D02*
X24750Y-34800D01*
G54D33*
X66940Y-35160D02*
X66940Y-34380D01*
X65430Y-35630D02*
X66470Y-35630D01*
X66470Y-35630D02*
X66940Y-35160D01*
G54D31*
X66240Y-32350D02*
X66240Y-30860D01*
G54D32*
X62880Y-33630D02*
X63030Y-33630D01*
G54D31*
X66600Y-30500D02*
X67300Y-30500D01*
X63235Y-33425D02*
X63850Y-32810D01*
G54D32*
X63030Y-33630D02*
X63235Y-33425D01*
G54D31*
X63850Y-32810D02*
X65780Y-32810D01*
X66240Y-30860D02*
X66600Y-30500D01*
X65780Y-32810D02*
X66240Y-32350D01*
G54D33*
X63330Y-31270D02*
X62600Y-31270D01*
X62600Y-31270D02*
X62580Y-31290D01*
G54D32*
X62360Y-34130D02*
X62880Y-34130D01*
G54D33*
X62090Y-31780D02*
X62580Y-31290D01*
X62090Y-33860D02*
X62090Y-31780D01*
X62360Y-34130D02*
X62090Y-33860D01*
X31000Y-35750D02*
X31250Y-35750D01*
X32250Y-32750D02*
X32250Y-33500D01*
X31250Y-35750D02*
X32250Y-34750D01*
X32250Y-34750D02*
X32250Y-33500D01*
X32750Y-32250D02*
X32250Y-32750D01*
X32750Y-32000D02*
X32750Y-32250D01*
X32250Y-28750D02*
X32300Y-28800D01*
X32300Y-28750D02*
X32750Y-28750D01*
X30750Y-27350D02*
X32150Y-28750D01*
X32250Y-30250D02*
X32250Y-28750D01*
X32150Y-28750D02*
X32300Y-28750D01*
X32300Y-28800D02*
X32300Y-28750D01*
X30750Y-26750D02*
X30750Y-27350D01*
X66130Y-33220D02*
X67300Y-32050D01*
G54D31*
X67300Y-32050D02*
X67300Y-31300D01*
G54D33*
X64020Y-33220D02*
X66130Y-33220D01*
G54D32*
X62880Y-33890D02*
X63350Y-33890D01*
G54D33*
X63350Y-33890D02*
X64020Y-33220D01*
X64305Y-35660D02*
X64950Y-35015D01*
X64950Y-35015D02*
X64950Y-34370D01*
X64240Y-35660D02*
X64305Y-35660D01*
X63335Y-35680D02*
X63490Y-35835D01*
X63490Y-35835D02*
X63490Y-37910D01*
X63490Y-37910D02*
X64240Y-38660D01*
G54D32*
X62880Y-35680D02*
X63335Y-35680D01*
G54D34*
X23450Y-22000D02*
X23900Y-22450D01*
X22100Y-18600D02*
X23450Y-19950D01*
X21600Y-18600D02*
X22100Y-18600D01*
G54D33*
X21600Y-18600D02*
X21850Y-18600D01*
G54D34*
X23900Y-22450D02*
X24800Y-22450D01*
X23450Y-19950D02*
X23450Y-22000D01*
X24800Y-22450D02*
X27800Y-22450D01*
X21600Y-26100D02*
X22500Y-26100D01*
X22500Y-26100D02*
X24750Y-28350D01*
X24750Y-28350D02*
X24750Y-30800D01*
X24750Y-30800D02*
X27750Y-30800D01*
G54D33*
X63770Y-35815D02*
X63770Y-36970D01*
G54D32*
X62880Y-35420D02*
X63611Y-35421D01*
G54D33*
X63770Y-36970D02*
X65430Y-38630D01*
X63611Y-35421D02*
X63770Y-35815D01*
X34400Y-34100D02*
X34400Y-28600D01*
X36800Y-34800D02*
X36500Y-35100D01*
X33500Y-26900D02*
X34400Y-27813D01*
X36500Y-35100D02*
X35400Y-35100D01*
X32900Y-21650D02*
X31250Y-20000D01*
X32900Y-24650D02*
X32900Y-21650D01*
X34400Y-27813D02*
X34400Y-28600D01*
X35400Y-35100D02*
X34400Y-34100D01*
X33500Y-25250D02*
X32900Y-24650D01*
X33500Y-25250D02*
X33500Y-26900D01*
X36800Y-34200D02*
X36800Y-34800D01*
X37800Y-34700D02*
X37000Y-35500D01*
X34000Y-30250D02*
X34000Y-30200D01*
X34000Y-34300D02*
X34000Y-30800D01*
X37800Y-34200D02*
X37800Y-34700D01*
X32750Y-26750D02*
X32000Y-26750D01*
X35200Y-35500D02*
X34000Y-34300D01*
X34000Y-28000D02*
X32750Y-26750D01*
X34000Y-30250D02*
X34000Y-28000D01*
X34000Y-30800D02*
X34000Y-30250D01*
X37000Y-35500D02*
X35200Y-35500D01*
X40070Y-36100D02*
X40300Y-36100D01*
X43500Y-33000D02*
X43800Y-33300D01*
X40300Y-38100D02*
X40700Y-38500D01*
X40300Y-33400D02*
X40700Y-33000D01*
X40300Y-36100D02*
X40300Y-33400D01*
X59340Y-38020D02*
X59030Y-37710D01*
X41200Y-36100D02*
X40300Y-36100D01*
X40300Y-36100D02*
X40300Y-38100D01*
X59030Y-37710D02*
X59030Y-36970D01*
X43800Y-33300D02*
X43800Y-34200D01*
X40700Y-33000D02*
X43500Y-33000D01*
X39650Y-35680D02*
X39650Y-35660D01*
X40070Y-36100D02*
X39650Y-35680D01*
X59340Y-38320D02*
X59340Y-38020D01*
X42200Y-35700D02*
X42800Y-35100D01*
X42800Y-35100D02*
X42800Y-34200D01*
X42200Y-36100D02*
X42200Y-35700D01*
G54D31*
X43800Y-32000D02*
X43800Y-29500D01*
G54D33*
X66210Y-33500D02*
X65990Y-33720D01*
G54D31*
X34300Y-24500D02*
X35300Y-24500D01*
X28750Y-20600D02*
X29400Y-20600D01*
G54D32*
X60080Y-36190D02*
X59560Y-36190D01*
X59560Y-36190D02*
X59460Y-36190D01*
G54D33*
X59460Y-36190D02*
X58730Y-36190D01*
G54D31*
X48300Y-35100D02*
X48300Y-35100D01*
X43800Y-23300D02*
X43800Y-22900D01*
X43800Y-23300D02*
X43800Y-23300D01*
X58400Y-17800D02*
X58400Y-16900D01*
G54D32*
X40300Y-29000D02*
X40300Y-27500D01*
G54D31*
X53700Y-19100D02*
X52100Y-19100D01*
G54D33*
X58730Y-36190D02*
X58446Y-36698D01*
G54D31*
X42200Y-17300D02*
X42300Y-17300D01*
X46200Y-16900D02*
X47200Y-16900D01*
G54D33*
X63950Y-33890D02*
X63950Y-34370D01*
G54D31*
X27750Y-24100D02*
X27300Y-23650D01*
X56000Y-26000D02*
X57000Y-27000D01*
X33200Y-18600D02*
X32400Y-18600D01*
X43700Y-37100D02*
X43700Y-38500D01*
X36300Y-18600D02*
X35800Y-19100D01*
X27750Y-15800D02*
X28750Y-16800D01*
X68100Y-31300D02*
X68100Y-32240D01*
X44800Y-34200D02*
X44800Y-34700D01*
G54D32*
X40300Y-29000D02*
X40400Y-29000D01*
G54D31*
X64800Y-22800D02*
X65500Y-23500D01*
X42300Y-17300D02*
X42200Y-17300D01*
G54D32*
X65940Y-33770D02*
X65990Y-33720D01*
G54D31*
X65100Y-23900D02*
X65500Y-23500D01*
X64700Y-19800D02*
X64700Y-19700D01*
X28750Y-17800D02*
X32150Y-17800D01*
X40200Y-17000D02*
X41200Y-17000D01*
X65500Y-23500D02*
X67000Y-23500D01*
X54300Y-18500D02*
X53700Y-19100D01*
X58400Y-18100D02*
X58400Y-17800D01*
X58400Y-16900D02*
X58400Y-16300D01*
X68100Y-32240D02*
X66840Y-33500D01*
X42400Y-20700D02*
X42400Y-22450D01*
X46700Y-25800D02*
X45800Y-26700D01*
X33200Y-16700D02*
X32400Y-16700D01*
X58400Y-16300D02*
X58400Y-15600D01*
X41600Y-19150D02*
X41600Y-19900D01*
X40800Y-29500D02*
X40400Y-29100D01*
X54700Y-16900D02*
X54300Y-17300D01*
X43800Y-25800D02*
X43800Y-28200D01*
X60600Y-23900D02*
X60600Y-19900D01*
X51300Y-18300D02*
X51300Y-17300D01*
X27800Y-11850D02*
X27200Y-11250D01*
X34200Y-19100D02*
X33700Y-19100D01*
G54D33*
X66840Y-33500D02*
X66210Y-33500D01*
G54D31*
X45400Y-18500D02*
X44800Y-19100D01*
X46700Y-23500D02*
X46700Y-25800D01*
X27750Y-24800D02*
X27750Y-24100D01*
X64700Y-21000D02*
X64700Y-22700D01*
X37300Y-24500D02*
X38300Y-24500D01*
X32150Y-17800D02*
X32400Y-18050D01*
G54D32*
X48300Y-35100D02*
X48300Y-33300D01*
G54D31*
X43500Y-22900D02*
X43750Y-22900D01*
G54D33*
X56100Y-38700D02*
X55700Y-39100D01*
G54D31*
X47200Y-16900D02*
X48200Y-16900D01*
X28750Y-18850D02*
X28750Y-20600D01*
X59600Y-28100D02*
X60600Y-28100D01*
X28750Y-17800D02*
X28750Y-18850D01*
X64700Y-21000D02*
X64700Y-19800D01*
X43800Y-23700D02*
X43800Y-25800D01*
X57800Y-16900D02*
X58400Y-16900D01*
X40300Y-25300D02*
X40300Y-27500D01*
X27300Y-23650D02*
X24250Y-23650D01*
X35800Y-19100D02*
X34200Y-19100D01*
X42400Y-22450D02*
X42850Y-22900D01*
G54D32*
X48300Y-35000D02*
X48300Y-35100D01*
G54D31*
X43800Y-22950D02*
X43750Y-22900D01*
X27750Y-24250D02*
X27900Y-24100D01*
X29400Y-20600D02*
X29500Y-20500D01*
X27800Y-11850D02*
X27800Y-12450D01*
X43750Y-22900D02*
X44000Y-22900D01*
X39700Y-17000D02*
X40200Y-17000D01*
G54D33*
X64120Y-33720D02*
X63950Y-33890D01*
G54D31*
X43800Y-23700D02*
X43800Y-23300D01*
X24250Y-23650D02*
X23800Y-24100D01*
X25100Y-15800D02*
X27750Y-15800D01*
X44100Y-35400D02*
X44100Y-36700D01*
X43700Y-37100D02*
X43200Y-37100D01*
X25500Y-27200D02*
X29500Y-27250D01*
X45800Y-26700D02*
X45800Y-28200D01*
X38200Y-17000D02*
X37200Y-17000D01*
X43800Y-29500D02*
X40800Y-29500D01*
G54D33*
X65940Y-34380D02*
X65940Y-33770D01*
G54D31*
X55000Y-16900D02*
X56000Y-16900D01*
X57000Y-27000D02*
X57000Y-29100D01*
X27200Y-11250D02*
X24250Y-11250D01*
G54D32*
X58446Y-36698D02*
X57900Y-36700D01*
G54D31*
X27900Y-24650D02*
X27750Y-24800D01*
X40400Y-29100D02*
X40300Y-29000D01*
G54D33*
X65990Y-33720D02*
X64120Y-33720D01*
G54D31*
X56000Y-16900D02*
X57000Y-16900D01*
X58400Y-27000D02*
X58500Y-27100D01*
G54D32*
X40400Y-29000D02*
X40400Y-29100D01*
G54D31*
X50600Y-38200D02*
X50600Y-37400D01*
X37200Y-17000D02*
X37000Y-17000D01*
X60600Y-24500D02*
X60600Y-23900D01*
X60600Y-27730D02*
X60600Y-26500D01*
X32400Y-16700D02*
X32400Y-18050D01*
X41600Y-19900D02*
X42400Y-20700D01*
X46400Y-23200D02*
X46700Y-23500D01*
G54D33*
X50600Y-38700D02*
X50600Y-38200D01*
G54D31*
X37000Y-17000D02*
X36300Y-17700D01*
X35300Y-24500D02*
X36300Y-24500D01*
X43800Y-28200D02*
X43800Y-22950D01*
G54D33*
X51000Y-39100D02*
X50600Y-38700D01*
G54D31*
X60600Y-28100D02*
X60600Y-27730D01*
X36300Y-24500D02*
X37300Y-24500D01*
X46200Y-16900D02*
X45400Y-17700D01*
X28750Y-23250D02*
X27900Y-24100D01*
X45800Y-30800D02*
X48300Y-33300D01*
X39700Y-17000D02*
X39200Y-17000D01*
X33700Y-19100D02*
X33200Y-18600D01*
X50500Y-17300D02*
X51300Y-17300D01*
G54D33*
X59830Y-39160D02*
X58880Y-39160D01*
G54D31*
X40200Y-15600D02*
X40200Y-17000D01*
G54D33*
X62460Y-27500D02*
X60830Y-27500D01*
X60830Y-27500D02*
X60600Y-27730D01*
G54D31*
X44800Y-34700D02*
X44100Y-35400D01*
X27750Y-24800D02*
X27750Y-24250D01*
G54D33*
X61860Y-34900D02*
X61650Y-35080D01*
X61680Y-37010D02*
X61680Y-39160D01*
G54D32*
X62360Y-34910D02*
X62880Y-34910D01*
G54D33*
X61680Y-39160D02*
X59830Y-39160D01*
X61650Y-35080D02*
X61680Y-37010D01*
X60620Y-28080D02*
X60600Y-28100D01*
G54D31*
X57000Y-27000D02*
X58400Y-27000D01*
X44800Y-34200D02*
X44800Y-33000D01*
G54D33*
X57150Y-36695D02*
X56990Y-36700D01*
G54D32*
X61860Y-34900D02*
X62360Y-34910D01*
G54D33*
X58446Y-36698D02*
X58450Y-37650D01*
G54D31*
X28750Y-16800D02*
X28750Y-17800D01*
X36300Y-17700D02*
X36300Y-18600D01*
X60600Y-23900D02*
X65100Y-23900D01*
G54D33*
X58450Y-38730D02*
X58450Y-37650D01*
X58880Y-39160D02*
X58450Y-38730D01*
G54D31*
X42300Y-18400D02*
X42300Y-17300D01*
X45400Y-17700D02*
X45400Y-18500D01*
G54D33*
X62460Y-26580D02*
X62460Y-27500D01*
G54D31*
X28750Y-20600D02*
X28750Y-23250D01*
X42300Y-17300D02*
X41500Y-17300D01*
G54D33*
X55700Y-39100D02*
X51000Y-39100D01*
G54D31*
X43800Y-29500D02*
X43800Y-28200D01*
X44800Y-19100D02*
X43000Y-19100D01*
X45800Y-30800D02*
X45800Y-28200D01*
G54D33*
X56100Y-37120D02*
X56100Y-38700D01*
G54D31*
X39500Y-24500D02*
X40300Y-25300D01*
X64700Y-22700D02*
X64800Y-22800D01*
X50600Y-37400D02*
X48300Y-35100D01*
X41200Y-17000D02*
X41500Y-17300D01*
X39200Y-17000D02*
X38200Y-17000D01*
G54D33*
X62460Y-27500D02*
X62460Y-28590D01*
G54D32*
X48300Y-35100D02*
X48300Y-35000D01*
G54D31*
X46400Y-23200D02*
X46100Y-22900D01*
X44800Y-33000D02*
X43800Y-32000D01*
X49300Y-16900D02*
X50100Y-16900D01*
X57000Y-16900D02*
X57800Y-16900D01*
X43000Y-19100D02*
X42300Y-18400D01*
X49300Y-15600D02*
X49300Y-16900D01*
X50100Y-16900D02*
X50500Y-17300D01*
X48200Y-16900D02*
X49300Y-16900D01*
G54D33*
X56990Y-36700D02*
X56495Y-36700D01*
G54D31*
X55000Y-16900D02*
X54700Y-16900D01*
X23800Y-24100D02*
X23800Y-25500D01*
X24250Y-11250D02*
X23850Y-11650D01*
G54D32*
X62880Y-34910D02*
X63410Y-34910D01*
G54D31*
X23850Y-11650D02*
X23850Y-14550D01*
X23850Y-14550D02*
X25100Y-15800D01*
X42300Y-18400D02*
X42300Y-18450D01*
X42300Y-18450D02*
X41600Y-19150D01*
G54D33*
X57900Y-36700D02*
X57150Y-36695D01*
G54D31*
X42850Y-22900D02*
X43500Y-22900D01*
X58600Y-27100D02*
X59600Y-28100D01*
X64700Y-19700D02*
X63500Y-18500D01*
X38300Y-24500D02*
X39300Y-24500D01*
X54300Y-17300D02*
X54300Y-18500D01*
X32400Y-18050D02*
X32400Y-18600D01*
X58500Y-27100D02*
X58600Y-27100D01*
X42300Y-17300D02*
X42300Y-16600D01*
G54D33*
X63410Y-34910D02*
X63950Y-34370D01*
G54D31*
X46100Y-22900D02*
X44000Y-22900D01*
X39500Y-24500D02*
X39300Y-24500D01*
X44100Y-36700D02*
X43700Y-37100D01*
X23800Y-25500D02*
X25500Y-27200D01*
G54D33*
X56495Y-36700D02*
X56100Y-37120D01*
G54D31*
X51300Y-17300D02*
X51300Y-16500D01*
X52100Y-19100D02*
X51300Y-18300D01*
X52400Y-16900D02*
X52600Y-17100D01*
X52600Y-17100D02*
X52600Y-18000D01*
X42600Y-14650D02*
X42800Y-14850D01*
X43300Y-15600D02*
X43300Y-16500D01*
X43300Y-14850D02*
X43300Y-15600D01*
X34200Y-17000D02*
X34600Y-17400D01*
X43300Y-16500D02*
X43700Y-16900D01*
X43300Y-14300D02*
X43300Y-14850D01*
X34600Y-17400D02*
X34600Y-18100D01*
X42600Y-14300D02*
X42600Y-14650D01*
X42800Y-14850D02*
X43300Y-14850D01*
X34200Y-15600D02*
X34200Y-15600D01*
X34200Y-15600D02*
X34200Y-14000D01*
X43700Y-16900D02*
X43700Y-18100D01*
X30400Y-11600D02*
X30400Y-11800D01*
X34200Y-15600D02*
X34200Y-17000D01*
X52400Y-15600D02*
X52400Y-16900D01*
X30400Y-11800D02*
X34200Y-15600D01*
X52400Y-15600D02*
X52400Y-14350D01*
G54D33*
X42800Y-24200D02*
X41200Y-22600D01*
X42800Y-28200D02*
X42800Y-24200D01*
X41200Y-22600D02*
X41200Y-20600D01*
X38800Y-28200D02*
X38800Y-27200D01*
G54D32*
X38300Y-25700D02*
X38300Y-25500D01*
X38800Y-26200D02*
X38800Y-27200D01*
X38300Y-25700D02*
X38800Y-26200D01*
X39300Y-25700D02*
X39800Y-26200D01*
G54D33*
X39800Y-28200D02*
X39800Y-27200D01*
G54D32*
X39300Y-25700D02*
X39300Y-25500D01*
X39800Y-26200D02*
X39800Y-27200D01*
G54D33*
X40200Y-20600D02*
X40200Y-22600D01*
X40200Y-22600D02*
X41800Y-24200D01*
X41800Y-24200D02*
X41800Y-28200D01*
X34600Y-22700D02*
X34600Y-21450D01*
X33200Y-19700D02*
X33200Y-20100D01*
X34200Y-21050D02*
X34200Y-20600D01*
X34600Y-21450D02*
X34200Y-21050D01*
X33200Y-20100D02*
X33700Y-20600D01*
X33700Y-20600D02*
X34200Y-20600D01*
X40800Y-24200D02*
X40200Y-23600D01*
X35400Y-23600D02*
X34600Y-22700D01*
X40800Y-28200D02*
X40800Y-24200D01*
X40200Y-23600D02*
X35400Y-23600D01*
X50300Y-20600D02*
X50300Y-21600D01*
X48800Y-23100D02*
X48800Y-28200D01*
X50300Y-21600D02*
X48800Y-23100D01*
G54D32*
X36300Y-25700D02*
X36300Y-25500D01*
G54D33*
X36800Y-28200D02*
X36800Y-27200D01*
G54D32*
X36800Y-26200D02*
X36800Y-27200D01*
X36300Y-25700D02*
X36800Y-26200D01*
X37300Y-25700D02*
X37800Y-26200D01*
G54D33*
X37800Y-28200D02*
X37800Y-27200D01*
G54D32*
X37800Y-26200D02*
X37800Y-27200D01*
X37300Y-25700D02*
X37300Y-25500D01*
G54D33*
X49300Y-21600D02*
X47800Y-23100D01*
X47800Y-23100D02*
X47800Y-28200D01*
X49300Y-20600D02*
X49300Y-21600D01*
X47400Y-23000D02*
X46700Y-22300D01*
X43300Y-21500D02*
X43300Y-20600D01*
X47400Y-26400D02*
X47400Y-23000D01*
X42300Y-19600D02*
X43300Y-20600D01*
X44100Y-22300D02*
X43300Y-21500D01*
X46800Y-28200D02*
X46800Y-27000D01*
X46700Y-22300D02*
X44100Y-22300D01*
X46800Y-27000D02*
X47400Y-26400D01*
X51800Y-28200D02*
X51800Y-24400D01*
X51800Y-24400D02*
X52500Y-23700D01*
X52500Y-23700D02*
X58800Y-23700D01*
X58800Y-23700D02*
X59400Y-23100D01*
X59400Y-23100D02*
X59400Y-20600D01*
G54D32*
X34300Y-25700D02*
X34800Y-26200D01*
X34800Y-26200D02*
X34800Y-27200D01*
G54D33*
X34800Y-33200D02*
X35800Y-34200D01*
X34800Y-27200D02*
X34800Y-33200D01*
G54D32*
X34300Y-25500D02*
X34300Y-25700D01*
X35800Y-26200D02*
X35800Y-27200D01*
X35300Y-25700D02*
X35300Y-25500D01*
G54D33*
X35800Y-28200D02*
X35800Y-27200D01*
G54D32*
X35300Y-25700D02*
X35800Y-26200D01*
G54D33*
X61800Y-11700D02*
X61800Y-14200D01*
X54800Y-26000D02*
X53000Y-26000D01*
X59100Y-24500D02*
X60000Y-23600D01*
X55400Y-24500D02*
X59100Y-24500D01*
X54800Y-25100D02*
X55400Y-24500D01*
X54800Y-25100D02*
X54800Y-26000D01*
X54800Y-26000D02*
X54800Y-28200D01*
X60000Y-23600D02*
X60000Y-16500D01*
X61800Y-14200D02*
X60000Y-16000D01*
X60000Y-16000D02*
X60000Y-16500D01*
X58400Y-20600D02*
X58400Y-22500D01*
X50800Y-23900D02*
X50800Y-28200D01*
X51600Y-23100D02*
X50800Y-23900D01*
X57800Y-23100D02*
X51600Y-23100D01*
X58400Y-22500D02*
X57800Y-23100D01*
X51300Y-19500D02*
X52400Y-20600D01*
X52400Y-20600D02*
X52400Y-20900D01*
X49800Y-23500D02*
X49800Y-28200D01*
X52400Y-20900D02*
X49800Y-23500D01*
M02*
