M48
;DRILL file {Pcbnew (2012-apr-16-27)-stable} date Tue 29 Oct 2013 12:20:00 GMT
;FORMAT={-:-/ absolute / metric / decimal}
FMAT,2
METRIC,TZ
T1C0.813
T2C1.001
T3C1.016
T4C1.524
T5C2.301
T6C3.048
%
G90
G05
M71
T1
X62.865Y62.992
X62.865Y78.232
X62.865Y83.312
X62.865Y88.392
X62.992Y31.623
X62.992Y46.863
X62.992Y51.943
X62.992Y57.023
X70.485Y62.992
X70.485Y78.232
X70.485Y83.312
X70.485Y88.392
X70.612Y31.623
X70.612Y46.863
X70.612Y51.943
X70.612Y57.023
X75.565Y73.025
X75.565Y81.280
X76.835Y36.195
X76.835Y38.735
X78.105Y60.325
X78.105Y67.945
X78.740Y53.975
X78.740Y56.515
X78.740Y90.805
X79.375Y38.735
X79.375Y43.180
X79.375Y50.800
X81.280Y56.515
X81.280Y60.325
X81.280Y67.945
X82.677Y48.895
X83.185Y73.025
X83.185Y81.280
X83.515Y39.345
X84.328Y42.418
X84.328Y50.038
X85.090Y58.166
X86.360Y90.805
X86.868Y35.560
X86.868Y39.624
X86.868Y52.324
X87.884Y45.974
X89.408Y39.624
X89.408Y52.324
X90.424Y45.974
X90.932Y71.628
X90.932Y86.868
X91.948Y39.624
X91.948Y52.324
X92.710Y58.166
X93.472Y71.628
X93.472Y86.868
X94.488Y39.624
X94.488Y52.324
X96.012Y71.628
X96.012Y86.868
X97.028Y39.624
X97.028Y52.324
X98.552Y71.628
X98.552Y86.868
X99.568Y39.624
X99.568Y52.324
X100.711Y90.576
X101.092Y71.628
X101.092Y86.868
X102.108Y39.624
X102.108Y52.324
X103.378Y97.790
X103.632Y71.628
X103.632Y86.868
X104.648Y39.624
X104.648Y52.324
X106.172Y71.628
X106.172Y86.868
X107.442Y42.164
X107.442Y49.784
X108.204Y36.322
X108.712Y71.628
X108.712Y86.868
X109.982Y36.322
X109.982Y39.624
X109.982Y52.324
X110.998Y45.974
X110.998Y97.790
X111.252Y60.198
X111.252Y65.532
X111.252Y71.628
X111.252Y86.868
X112.522Y39.624
X112.522Y52.324
X113.538Y45.974
X113.792Y60.198
X113.792Y65.532
X113.792Y71.628
X113.792Y86.868
X114.808Y97.028
X115.062Y39.624
X115.062Y52.324
X116.332Y71.628
X116.332Y86.868
X116.586Y55.118
X116.586Y62.738
X117.348Y91.948
X117.348Y97.028
X117.602Y39.624
X117.602Y52.324
X118.872Y71.628
X118.872Y86.868
X120.142Y39.624
X120.142Y52.324
X121.412Y71.628
X121.412Y86.868
X122.428Y91.948
X122.428Y97.028
X122.682Y39.624
X122.682Y52.324
X123.952Y71.628
X123.952Y86.868
X124.968Y97.028
X125.222Y39.624
X125.222Y52.324
X126.492Y71.628
X126.492Y86.868
X127.762Y39.624
X127.762Y52.324
X128.524Y97.028
X129.032Y71.628
X129.032Y86.868
X130.302Y41.910
X130.302Y49.530
X131.064Y97.028
X131.572Y71.628
X131.572Y86.868
X133.096Y36.449
X133.096Y39.624
X133.096Y52.324
X133.604Y45.720
X133.604Y97.028
X134.112Y71.628
X134.112Y86.868
X134.620Y66.040
X135.636Y39.624
X135.636Y52.324
X136.144Y45.720
X136.144Y97.028
X136.652Y71.628
X136.652Y86.868
X138.176Y39.624
X138.176Y52.324
X138.684Y97.028
X139.192Y71.628
X139.192Y86.868
X140.716Y39.624
X140.716Y52.324
X141.224Y97.028
X142.240Y66.040
X143.256Y39.624
X143.256Y52.324
X143.764Y97.028
X144.272Y56.642
X144.272Y64.262
X145.796Y39.624
X145.796Y52.324
X147.066Y93.218
X147.066Y95.758
X148.336Y39.624
X148.336Y45.974
X148.336Y52.324
X148.590Y68.834
X148.590Y76.454
X149.682Y86.335
X149.708Y82.448
X149.860Y93.904
X150.724Y97.333
X150.876Y39.624
X150.876Y52.324
X151.384Y71.374
X151.384Y78.994
X153.264Y97.333
X153.924Y50.546
X153.924Y62.230
X153.924Y67.310
X155.956Y52.578
X155.956Y57.912
X158.496Y52.578
X158.496Y57.912
X158.648Y67.513
X158.648Y72.619
X160.858Y79.426
X161.188Y67.513
X161.188Y72.619
X161.798Y53.340
X162.052Y57.912
X162.433Y87.300
X163.170Y90.576
X163.170Y98.196
X163.398Y79.426
X164.338Y53.340
X164.592Y57.912
X164.973Y87.300
X166.192Y90.500
X166.192Y98.120
X167.488Y87.325
X170.028Y87.325
T2
X170.942Y77.470
X170.942Y79.502
X172.974Y77.470
X172.974Y79.502
T3
X74.930Y41.910
X74.930Y52.070
X74.930Y59.055
X74.930Y69.215
X76.835Y76.835
X76.835Y85.090
X79.375Y76.835
X79.375Y85.090
X81.915Y76.835
X81.915Y85.090
X88.417Y64.160
X88.417Y66.700
X90.957Y64.160
X90.957Y66.700
X91.948Y35.814
X93.497Y64.160
X93.497Y66.700
X94.488Y35.814
X94.488Y43.180
X94.488Y45.720
X96.037Y64.160
X96.037Y66.700
X97.028Y35.814
X97.028Y43.180
X97.028Y45.720
X98.577Y64.160
X98.577Y66.700
X99.568Y35.814
X99.568Y43.180
X99.568Y45.720
X101.117Y64.160
X101.117Y66.700
X104.648Y91.694
X104.648Y94.234
X107.188Y91.694
X107.188Y94.234
X109.728Y91.694
X109.728Y94.234
X115.062Y35.560
X117.348Y42.926
X117.348Y45.466
X117.602Y35.560
X119.888Y42.926
X119.888Y45.466
X120.142Y35.560
X122.428Y42.926
X122.428Y45.466
X122.682Y35.560
X138.176Y35.814
X139.700Y42.926
X139.700Y45.466
X140.716Y35.814
X142.240Y42.926
X142.240Y45.466
X143.256Y35.814
X144.780Y42.926
X144.780Y45.466
X144.780Y73.914
X144.780Y76.454
X144.780Y78.994
X144.780Y81.534
X145.796Y35.814
X156.210Y46.990
X158.750Y46.990
X161.290Y46.990
T4
X54.864Y36.830
X54.864Y41.910
X54.864Y47.244
X54.864Y52.324
X54.864Y66.294
X54.864Y71.374
X54.864Y76.708
X54.864Y81.788
X62.230Y96.520
X67.310Y96.520
X72.390Y96.520
X77.216Y29.464
X77.470Y96.520
X82.296Y29.464
X82.550Y96.520
X87.630Y29.464
X87.630Y96.520
X92.710Y29.464
X92.710Y96.520
X97.790Y29.464
X97.790Y96.520
X102.870Y29.464
X111.506Y29.464
X116.586Y29.464
X121.666Y29.464
X126.746Y29.464
X134.112Y29.464
X139.192Y29.464
X144.272Y29.464
X149.352Y29.464
X156.972Y29.718
X162.052Y29.718
X170.180Y49.530
X170.180Y54.610
X170.180Y59.690
X170.180Y64.770
T5
X175.006Y71.882
X175.006Y85.090
T6
X54.610Y29.210
X54.610Y97.790
X173.990Y29.210
X173.990Y97.790
T0
M30
