M48
;DRILL file {Pcbnew (2012-apr-16-27)-stable} date Fri 01 Nov 2013 05:07:15 GMT
;FORMAT={-:-/ absolute / metric / decimal}
FMAT,2
METRIC,TZ
T1C0.813
T2C1.001
T3C1.016
T4C1.524
T5C2.301
T6C3.048
%
G90
G05
M71
T1
X62.865Y-62.992
X62.865Y-78.232
X62.865Y-83.312
X62.865Y-88.392
X62.992Y-31.623
X62.992Y-46.863
X62.992Y-51.943
X62.992Y-57.023
X70.485Y-62.992
X70.485Y-78.232
X70.485Y-83.312
X70.485Y-88.392
X70.612Y-31.623
X70.612Y-46.863
X70.612Y-51.943
X70.612Y-57.023
X75.565Y-73.025
X75.565Y-81.280
X76.772Y-69.469
X76.835Y-36.195
X76.835Y-38.735
X78.105Y-60.325
X78.105Y-67.945
X78.740Y-53.975
X78.740Y-56.515
X78.740Y-90.805
X79.375Y-38.735
X79.375Y-43.180
X79.375Y-50.800
X81.280Y-56.515
X81.280Y-60.325
X81.280Y-67.945
X82.677Y-48.895
X83.185Y-73.025
X83.185Y-81.280
X83.515Y-39.345
X84.328Y-42.418
X84.328Y-50.038
X85.090Y-58.166
X86.360Y-90.805
X86.868Y-35.560
X86.868Y-39.624
X86.868Y-52.324
X87.884Y-45.974
X89.408Y-39.624
X89.408Y-52.324
X90.424Y-45.974
X90.932Y-71.628
X90.932Y-86.868
X91.948Y-39.624
X91.948Y-52.324
X92.710Y-58.166
X93.472Y-71.628
X93.472Y-86.868
X94.488Y-39.624
X94.488Y-52.324
X96.012Y-71.628
X96.012Y-86.868
X97.028Y-39.624
X97.028Y-52.324
X98.552Y-71.628
X98.552Y-86.868
X99.568Y-39.624
X99.568Y-52.324
X100.711Y-90.576
X101.092Y-71.628
X101.092Y-86.868
X102.108Y-39.624
X102.108Y-52.324
X103.378Y-97.790
X103.632Y-71.628
X103.632Y-86.868
X104.648Y-39.624
X104.648Y-52.324
X106.172Y-71.628
X106.172Y-86.868
X107.442Y-42.164
X107.442Y-49.784
X108.204Y-36.322
X108.712Y-71.628
X108.712Y-86.868
X109.982Y-36.322
X109.982Y-39.624
X109.982Y-52.324
X110.998Y-45.974
X110.998Y-97.790
X111.252Y-60.198
X111.252Y-65.532
X111.252Y-71.628
X111.252Y-86.868
X112.522Y-39.624
X112.522Y-52.324
X113.538Y-45.974
X113.792Y-60.198
X113.792Y-65.532
X113.792Y-71.628
X113.792Y-86.868
X114.808Y-97.028
X115.062Y-39.624
X115.062Y-52.324
X116.332Y-71.628
X116.332Y-86.868
X116.586Y-55.118
X116.586Y-62.738
X117.348Y-91.948
X117.348Y-97.028
X117.602Y-39.624
X117.602Y-52.324
X118.872Y-71.628
X118.872Y-86.868
X120.142Y-39.624
X120.142Y-52.324
X121.412Y-71.628
X121.412Y-86.868
X122.428Y-91.948
X122.428Y-97.028
X122.682Y-39.624
X122.682Y-52.324
X123.952Y-71.628
X123.952Y-86.868
X124.968Y-97.028
X125.222Y-39.624
X125.222Y-52.324
X126.492Y-71.628
X126.492Y-86.868
X127.762Y-39.624
X127.762Y-52.324
X128.524Y-97.028
X129.032Y-71.628
X129.032Y-86.868
X130.302Y-41.910
X130.302Y-49.530
X131.064Y-97.028
X131.572Y-71.628
X131.572Y-86.868
X133.096Y-36.449
X133.096Y-39.624
X133.096Y-52.324
X133.604Y-45.720
X133.604Y-97.028
X134.112Y-71.628
X134.112Y-86.868
X134.620Y-66.040
X135.636Y-39.624
X135.636Y-52.324
X136.144Y-45.720
X136.144Y-97.028
X136.652Y-71.628
X136.652Y-86.868
X138.176Y-39.624
X138.176Y-52.324
X138.684Y-97.028
X139.192Y-71.628
X139.192Y-86.868
X140.716Y-39.624
X140.716Y-52.324
X141.224Y-97.028
X142.240Y-66.040
X143.256Y-39.624
X143.256Y-52.324
X143.764Y-97.028
X144.272Y-56.642
X144.272Y-64.262
X145.796Y-39.624
X145.796Y-52.324
X147.066Y-93.218
X147.066Y-95.758
X148.336Y-39.624
X148.336Y-45.974
X148.336Y-52.324
X148.590Y-68.834
X148.590Y-76.454
X149.682Y-86.335
X149.708Y-82.448
X149.860Y-93.904
X150.724Y-97.333
X150.876Y-39.624
X150.876Y-52.324
X151.384Y-71.374
X151.384Y-78.994
X153.264Y-97.333
X153.924Y-50.546
X153.924Y-62.230
X153.924Y-67.310
X155.956Y-52.578
X155.956Y-55.055
X155.956Y-57.912
X158.496Y-52.578
X158.496Y-57.912
X158.648Y-67.513
X158.648Y-72.619
X160.858Y-79.426
X161.188Y-67.513
X161.188Y-72.619
X161.798Y-53.340
X162.052Y-57.912
X162.433Y-87.300
X163.170Y-90.576
X163.170Y-98.196
X163.398Y-79.426
X164.338Y-53.340
X164.592Y-57.912
X164.973Y-87.300
X166.192Y-90.500
X166.192Y-98.120
X167.488Y-87.325
X170.028Y-87.325
T2
X170.942Y-77.470
X170.942Y-79.502
X172.974Y-77.470
X172.974Y-79.502
T3
X74.930Y-41.910
X74.930Y-52.070
X74.930Y-59.055
X74.930Y-69.215
X76.835Y-76.835
X76.835Y-85.090
X79.375Y-76.835
X79.375Y-85.090
X81.915Y-76.835
X81.915Y-85.090
X88.417Y-64.160
X88.417Y-66.700
X90.957Y-64.160
X90.957Y-66.700
X91.948Y-35.814
X93.497Y-64.160
X93.497Y-66.700
X94.488Y-35.814
X94.488Y-43.180
X94.488Y-45.720
X96.037Y-64.160
X96.037Y-66.700
X97.028Y-35.814
X97.028Y-43.180
X97.028Y-45.720
X98.577Y-64.160
X98.577Y-66.700
X99.568Y-35.814
X99.568Y-43.180
X99.568Y-45.720
X101.117Y-64.160
X101.117Y-66.700
X104.648Y-91.694
X104.648Y-94.234
X107.188Y-91.694
X107.188Y-94.234
X109.728Y-91.694
X109.728Y-94.234
X115.062Y-35.560
X117.348Y-42.926
X117.348Y-45.466
X117.602Y-35.560
X119.888Y-42.926
X119.888Y-45.466
X120.142Y-35.560
X122.428Y-42.926
X122.428Y-45.466
X122.682Y-35.560
X138.176Y-35.814
X139.700Y-42.926
X139.700Y-45.466
X140.716Y-35.814
X142.240Y-42.926
X142.240Y-45.466
X143.256Y-35.814
X144.780Y-42.926
X144.780Y-45.466
X144.780Y-73.914
X144.780Y-76.454
X144.780Y-78.994
X144.780Y-81.534
X145.796Y-35.814
X156.210Y-46.990
X158.750Y-46.990
X161.290Y-46.990
T4
X54.864Y-36.830
X54.864Y-41.910
X54.864Y-47.244
X54.864Y-52.324
X54.864Y-66.294
X54.864Y-71.374
X54.864Y-76.708
X54.864Y-81.788
X62.230Y-96.520
X67.310Y-96.520
X72.390Y-96.520
X77.216Y-29.464
X77.470Y-96.520
X82.296Y-29.464
X82.550Y-96.520
X87.630Y-29.464
X87.630Y-96.520
X92.710Y-29.464
X92.710Y-96.520
X97.790Y-29.464
X97.790Y-96.520
X102.870Y-29.464
X111.506Y-29.464
X116.586Y-29.464
X121.666Y-29.464
X126.746Y-29.464
X134.112Y-29.464
X139.192Y-29.464
X144.272Y-29.464
X149.352Y-29.464
X156.972Y-29.718
X162.052Y-29.718
X170.180Y-49.530
X170.180Y-54.610
X170.180Y-59.690
X170.180Y-64.770
T5
X175.006Y-71.882
X175.006Y-85.090
T6
X54.610Y-29.210
X54.610Y-97.790
X173.990Y-29.210
X173.990Y-97.790
T0
M30
